<svg width="18" height="18" viewBox="0 0 18 18" fill="none" xmlns="http://www.w3.org/2000/svg">
<g clip-path="url(#clip0_636_1362)">
<path d="M17.6317 8.80016C17.6317 8.69932 17.5732 8.60787 17.4816 8.56584L12.971 6.49233L17.4816 4.41881C17.677 4.32898 17.6771 4.04015 17.4816 3.95032L8.93941 0.0235004C8.86905 -0.00872622 8.78795 -0.00778627 8.71852 0.026186L7.94495 0.404312C7.64685 0.550003 7.87123 1.01407 8.17148 0.86757L8.83508 0.543155L10.2916 1.21266L8.82192 1.88835L6.9282 1.02038C6.83353 0.977006 6.74787 0.938737 6.64447 0.986003L0.181955 3.95032C-0.013553 4.04001 -0.0138215 4.32898 0.181821 4.41881L4.69248 6.49246L3.80839 6.89879C3.50681 7.03736 3.72044 7.50679 4.02377 7.36728L5.29565 6.78264C5.30022 6.78062 5.30451 6.77807 5.30881 6.77579L8.72403 8.34563C8.79197 8.37691 8.8716 8.37691 8.93941 8.34563L12.3537 6.77619L16.7567 8.80016L8.83172 12.4431L0.906652 8.80016L2.64045 8.00308C2.94203 7.86451 2.72867 7.39494 2.4252 7.53459L0.181687 8.56584C-0.013553 8.65567 -0.0138215 8.94451 0.181687 9.03434L4.69248 11.1079L0.181687 13.1814C-0.013553 13.2712 -0.0138215 13.56 0.181687 13.6499L8.72403 17.5767C8.79184 17.6078 8.8716 17.6078 8.93941 17.5767L10.4175 16.8971C10.719 16.7585 10.5058 16.289 10.2022 16.4286L8.83172 17.0586L0.906652 13.4157L5.30975 11.3916L8.72403 12.9612C8.79184 12.9923 8.8716 12.9923 8.93941 12.9612L12.3691 11.3845C12.3886 11.4026 12.4112 11.418 12.4365 11.4297L16.7567 13.4155L11.8865 15.6544C11.585 15.7931 11.7986 16.2624 12.1019 16.1229L17.4816 13.6499C17.677 13.56 17.6771 13.2712 17.4816 13.1814L12.971 11.1079L17.4816 9.03434C17.5732 8.99231 17.6317 8.90087 17.6317 8.80016V8.80016ZM10.9089 6.87274L9.449 6.20162L11.0535 5.46403L12.5081 6.13757L10.9089 6.87274ZM5.15694 6.13837L6.61694 5.46725L8.21445 6.20162L6.75444 6.87274L5.15694 6.13837ZM2.98379 5.13948L4.44379 4.46836L5.99967 5.18352L4.53967 5.85464L2.98379 5.13948ZM4.61648 2.48347L6.06654 3.15486L4.44379 3.9009L2.98661 3.23099L4.61648 2.48347ZM6.68153 3.43966L8.23177 4.15751L6.61694 4.89979L5.06107 4.18463L6.68153 3.43966ZM14.6795 3.22978L13.2164 3.90238L11.6165 3.16909L13.082 2.49542L14.6795 3.22978ZM12.5985 4.18638L11.0543 4.89617L9.46256 4.15912L10.9986 3.45309L12.5985 4.18638ZM13.1239 5.85451L11.6694 5.18097L13.2167 4.4697L14.6787 5.13975L13.1239 5.85451ZM8.84757 3.87432L7.29733 3.1566L8.82219 2.45554L10.3803 3.16976L8.84757 3.87432ZM7.23422 5.18352L8.84676 4.44218L10.4385 5.17923L8.83172 5.91789L7.23422 5.18352ZM15.2967 4.85575L13.8345 4.18571L15.2968 3.51351L16.7567 4.18463L15.2967 4.85575ZM10.9089 1.49639L12.4647 2.21169L10.9983 2.88576L9.44013 2.17154L10.9089 1.49639ZM6.68234 2.8718L5.23294 2.20068L6.74894 1.50539L8.20397 2.17235L6.68234 2.8718ZM2.3688 3.51445L3.82652 4.18463L2.36652 4.85575L0.907189 4.1849L2.3688 3.51445ZM8.83172 7.82758L7.37172 7.15646L8.83172 6.48534L10.2916 7.15646L8.83172 7.82758Z" fill="white"/>
</g>
<defs>
<clipPath id="clip0_636_1362">
<rect width="17.6" height="17.6" fill="white"/>
</clipPath>
</defs>
</svg>
