<svg width="1123" height="1167" viewBox="0 0 1123 1167" fill="none" xmlns="http://www.w3.org/2000/svg">
<path d="M832.85 532.261V481.837M890.621 317.287V506.317M902.176 500.342V309.619M844.404 473.926V527.52M855.959 522.582V463.591M197.408 290.398V314.101M208.962 321.829V289.239M520.898 688.793V849.654M532.453 848.877V686.217M474.681 698.442V851.453M486.236 851.179V696.11M497.79 693.732V850.797M509.344 850.279V691.278M567.116 678.26V845.752M578.67 844.395V675.471M544.007 683.626V847.977M555.561 846.926V680.943M497.79 454.445V606.831M509.344 605.886V451.747M590.224 672.651V842.871M601.779 841.179V669.754M451.588 702.969V851.666M463.142 851.605V700.729M474.697 459.658V608.401M486.251 607.669V457.067M428.479 707.268V851.438M440.034 851.605V705.149M451.588 464.627V609.559M463.142 609.041V462.188M728.876 645.853V804.153M740.431 797.706V648.521M728.876 498.284V566.894M740.431 563.647V500.342M751.985 501.439V560.248M763.539 556.726V501.607M705.768 491.166V572.976M717.322 569.988V495.22M775.093 672.513V768.713M786.648 749.903V693.701M613.348 666.828V839.289M624.903 837.201V663.825M682.674 479.931V578.57M694.229 575.841V486.074M659.565 654.481V829.457M671.12 826.317V651.219M636.457 660.761V834.853M648.011 832.292V657.621M751.985 653.155V790.069M763.539 780.801V660.624M520.914 448.957V604.788M532.468 603.614V446.152M682.659 647.926V822.811M694.213 818.924V645.823M705.768 644.74V814.58M717.322 809.671V644.664M174.315 739.797V822.323M185.869 824.777V738.989M46.4855 531.773C46.7294 531.91 46.9885 532.063 47.2172 532.2V510.997M867.498 100.88V240.522M879.052 226.087V116.092M890.606 138.042V204.64M844.389 77.9082V259.439M855.943 251.497V88.5174M382.262 1127.35V1141.29M393.816 1146.7V1122.13M902.16 1080.09V1040.36M1121.68 675.013V723.441M12.5543 741.473V770.329M24.1086 775.588V742.144M821.296 60.0127V256.909M832.85 260.125V68.5336M35.6629 742.693V780.542M47.2172 785.176V743.044M1 764.735V741.291M544.007 443.332V602.425M555.561 601.053V440.391M428.479 469.429V610.321M440.034 610.032V467.097M636.442 444.75V588.371M647.996 586.115V454.826M613.333 432.937V592.563M624.887 590.536V437.311M590.224 431.946V596.313M601.779 594.499V431.367M567.116 437.449V599.621M578.67 598.035V434.354M659.55 464.399V583.768M671.105 581.283V472.782M798.187 105.605V243.937M807.699 249.653C808.324 250.049 809.025 250.476 809.741 250.918V90.7124M197.408 738.227V827.247M208.962 829.457V737.282M405.371 473.971V610.58M416.925 610.52V471.731M359.153 482.264V609.651M370.708 610.062V480.282M220.517 736.215V831.53M232.071 833.496V735.132M382.262 478.209V610.337M393.816 610.504V476.105M751.97 140.817V223.297M763.524 227.276V133.515M336.045 722.465V846.621M347.599 847.581V720.773M428.479 938.888V1038.26M440.034 1039.07V936.998M451.588 935.031V1039.77M463.142 1040.36V933.019M497.805 926.663V1041.43M509.359 1041.55V924.452M520.914 922.166V1041.55M532.468 1041.41V919.834M359.169 719.051V848.481M370.723 849.243V717.252M659.565 185.784V227.825M671.12 222.886V181.028M405.386 942.577V1036.34M416.94 1037.36V940.763M544.022 917.456V1041.15M555.577 1040.76V915.002M405.386 711.49V850.919M416.94 851.285V709.448M382.277 715.362V849.883M393.831 850.447V713.441M474.697 930.976V1040.85M486.251 1041.2V928.842M728.876 871.879V1010.94M740.431 1006.25V870.08M775.093 871.315V986.949M786.648 977.59V875.293M751.985 869.257V1000.81M763.539 994.479V869.547M567.131 912.517V1040.21M578.685 1039.52V909.956M775.093 500.921V553.19M786.648 549.349V499.183M775.093 125.528V232.093M786.648 237.657V116.428M705.768 878.113V1018.75M717.322 1015.07V874.836M613.333 901.954V1036.46M624.887 1035.09V899.179M590.224 907.334V1038.65M601.779 1037.63V904.667M682.659 884.409V1024.84M694.213 1021.98V881.284M659.55 890.491V1029.68M671.105 1027.39V887.473M636.442 896.329V1033.49M647.996 1031.69V893.417M728.876 153.88V217.947M740.431 220.157V147.569M474.697 244.546V374.22M486.251 373.625V241.635M497.805 238.632V372.985M509.359 372.284V235.522M451.588 250.156V375.257M463.142 374.799V247.397M428.479 255.445V375.165M440.034 375.363V252.854M405.371 260.399V374.052M416.925 374.723V257.96M520.898 232.337V371.491M532.453 370.577V229.059M636.426 194.777V243.464M647.981 234.501V190.326M613.318 203.192V274.103M624.872 255.811V199.046M567.101 218.633V365.608M578.655 360.852V214.959M543.992 225.691V369.464M555.546 367.955V222.215M590.209 211.164V351.111M601.764 308.613V207.246M289.827 492.949V604.392M301.382 605.626V491.333M243.61 498.818V597.99M255.164 599.834V497.461M243.61 733.974V835.402M255.164 837.155V732.77M220.502 501.378V593.798M232.056 595.977V500.144M266.719 731.474V838.832M278.273 840.386V730.133M289.827 728.715V841.835M301.382 843.191V727.252M382.262 265.048V372.132M393.816 373.199V262.777M336.045 273.386V365.714M347.599 367.65V271.435M266.719 496.059V601.526M278.273 603.05V494.55M359.153 269.408V369.373M370.708 370.866V267.289M312.936 725.758V844.472M324.49 845.63V724.173M336.045 486.135V608.492M347.599 609.163V484.245M312.936 489.672V606.739M324.49 607.669V487.919" stroke="white" stroke-miterlimit="10"/>
<path d="M104.955 743.058V804.748M116.51 808.071V742.738M81.8468 743.363V797.522M93.4012 801.226V743.272M174.281 505.509V583.082M185.836 586.023V504.564M151.173 741.26V817.079M162.727 819.793V740.589M58.7383 743.257V789.504M70.2925 793.62V743.379M128.064 508.436V569.058M139.618 572.93V507.856M162.727 982.071V972.178M151.173 507.155V576.557M162.727 579.941V506.378M58.7383 509.884V538.846M70.2925 544.928V509.945M104.955 509.366V560.461M116.51 564.912V508.939M81.8468 509.853V550.461M93.4012 555.629V509.655M451.555 1114.69V1156.27M463.109 1157.86V1112.96M359.135 949.055V1031.03M370.69 1032.5V947.5M382.244 945.869V1033.85M393.798 1035.1V944.192M174.281 965.106V989.769M185.836 993.58V964.679M405.353 1120.75V1148.82M416.907 1150.84V1119.35M428.461 1117.87V1152.76M440.016 1154.58V1116.3M336.042 952.027V1027.76M347.596 1029.45V950.579M220.499 962.895V1003.79M232.053 1006.84V962.118M197.39 964.161V997.177M208.944 1000.58V963.551M266.716 959.374V1015.01M278.27 1017.45V958.292M289.825 957.164V1019.75M301.379 1021.93V955.99M312.933 954.725V1024.01M324.488 1025.94V953.414M243.607 961.28V1009.72M255.162 1012.45V960.365M128.079 742.342V811.226M139.634 814.229V741.839M544.004 43.565V169.916M555.559 168.269V37.6049M567.113 30.9284V166.135M578.667 163.544V23.1848M590.222 13.4292V160.419M601.776 156.593V0M497.955 63.0305C497.955 63.0305 497.848 63.061 497.787 63.0915V172.827M509.341 172.614V58.7014M520.896 54.0065V172.065M532.45 171.165V48.9915M682.641 175.967V219.364M694.195 217.276V170.815M682.641 69.204V90.3767M474.678 71.1703V172.248M486.233 172.705V67.2376M613.315 4.58818V151.929C613.65 151.776 614.001 151.639 614.336 151.487M624.869 146.38V10.0605M636.424 16.5541V140.1M647.978 132.798V24.2976M659.532 33.7789V123.973M671.087 112.296V46.2782M243.607 285.946V339.435M255.162 344.038V284.681M266.716 283.309V348.184M278.27 351.919V281.861M289.825 280.307V355.257M301.379 358.26V278.676M451.57 78.4566V170.251M463.124 171.44V74.9049M220.499 288.248V328.429M232.053 334.283V287.151M197.39 503.527V588.767C197.969 588.904 198.533 589.042 199.128 589.179M208.944 591.343V502.445M324.488 116.519V109.339M312.933 276.968V360.989M324.488 363.427V275.17M428.476 85.0721V166.73M440.031 168.696V81.8405M405.368 91.0626V161.425M416.922 164.306V88.1207M382.259 96.5197V153.925M393.813 158.011V93.8521M336.042 105.925V127.738M347.596 136.32V103.745M359.15 101.458V143.331M370.705 149.063V99.0501M636.439 1079.54V1165.2M647.993 1164.15V1076.79M1006.15 765.374V903.981M1017.7 896.222V758.591M983.038 785.709V914.59M994.592 910.215V774.398M1030.15 261.39C1029.87 260.932 1029.54 260.46 1029.24 260.003V394.935M1040.79 372.863V282.197M474.663 1111.21V1159.32M486.217 1160.69V1109.35M959.914 266.359V464.795M971.468 456.136V253.936M948.36 899.301V853.48M983.023 531.163V706.338M994.577 705.027V524.639M959.914 820.387V913.797M971.468 916.419V800.281M1006.13 517.81V701.673M1017.69 696.613V510.57M959.914 548.205V699.158C960.432 699.539 960.92 699.951 961.454 700.301M971.468 704.89V538.038M936.805 286.038V480.358M948.36 472.858V276.816M913.697 302.302V494.077M925.251 487.415V294.467M1052.33 737.952V865.324M1063.89 852.443V730.208M1052.33 907.685V919.955M1063.89 898.066V894.652M1075.44 721.87V838.023M1087 821.622V712.755M1121.66 498.04V567.091M1098.55 702.542V802.111M1110.1 775.572V690.546M1006.12 943.14V991.735M1017.67 976.767V935.61M913.697 1020.9V1075.48M925.251 1068.52V1005.29M936.805 992.178V1060.21M948.36 1050.86V980.989M936.805 586.054V665.684M948.36 687.573V562.625M1029.24 927.333V958.688M1040.79 939.604V918.202M959.914 971.462V1040.71M971.468 1029.77V963.337M983.023 956.859V1018M994.577 1005.38V950.198M1006.13 227.367V424.69M1017.69 411.261V243.174M682.626 1068.12V1159.12M694.18 1156.67V1065.1M705.734 165.434V216.407M717.289 216.651V159.794M659.517 1073.99V1162.86M671.071 1161.16V1071.11M1029.22 752.067V887.152M1040.78 876.832V745.177M751.936 1050.76V1134.56M763.491 1126.77V1050.09M728.828 1055.5V1145.89M740.382 1140.78V1052.6M497.757 1107.48V1161.93M509.311 1163.05V1105.48M613.284 1084.84V1166.51M624.839 1165.98V1082.23M520.85 1103.47V1164.04M532.404 1164.91V1101.36M543.959 1099.21V1165.64M555.513 1166.22V1096.99M590.176 1089.92V1166.97M601.73 1166.86V1087.43M567.067 1094.7V1166.65M578.622 1166.91V1092.34M705.704 1061.98V1153.71M717.258 1150.16V1058.81M1075.41 464.429V649.74M1086.97 635.472V450.237M982.977 236.589V446.731M994.531 436.366V212.17M1098.52 426.382V618.629M1110.07 597.715V444.917M1029.19 502.918V690.058M1040.75 682.132V494.717M775.015 1051.21V1116.79M786.569 1102.75V1056.02M1052.3 485.784V672.848M1063.86 662.102V475.846M798.123 496.409V545.278M809.677 541.117V492.751M798.123 882.747V965.045M809.677 945.03V898.981M867.449 449.399V517.414M879.003 512.018V426.626M821.232 488.01V536.773" stroke="white" stroke-miterlimit="10"/>
</svg>
