<svg width="473" height="231" viewBox="0 0 473 231" fill="none" xmlns="http://www.w3.org/2000/svg">
<mask id="path-1-inside-1_636_1334" fill="white">
<path d="M471.051 83.9979H397.772V63.6903H419.249C420.34 63.6903 421.198 62.8328 421.198 61.7414V28.1422C421.198 27.0508 420.34 26.1933 419.249 26.1933H253.826V1.94891C253.826 0.85752 252.968 0 251.877 0H12.3171C11.2257 0 10.3682 0.85752 10.3682 1.94891V36.1717C10.3682 37.2631 11.2257 38.1206 12.3171 38.1206H22.8413V85.4011H12.3171C11.2257 85.4011 10.3682 86.2587 10.3682 87.3501V121.573C10.3682 122.664 11.2257 123.522 12.3171 123.522H47.3584V214.575H1.94891C0.85752 214.575 0 215.432 0 216.524V228.568C0 229.659 0.85752 230.517 1.94891 230.517H471.051C472.142 230.517 473 229.659 473 228.568V216.524C473 215.432 472.142 214.575 471.051 214.575H437.842V182.535C437.842 181.443 436.984 180.586 435.893 180.586H423.381V140.789H435.893C436.984 140.789 437.842 139.932 437.842 138.84V123.522H471.051C472.142 123.522 473 122.664 473 121.573V85.9858C473 84.8944 472.142 84.0369 471.051 84.0369V83.9979ZM393.874 85.9468V108.203H295.416V63.6903H393.874V85.9468ZM26.7391 38.1206H203.037V85.4011H26.7391V38.1206ZM14.266 89.299H204.986C206.078 89.299 206.935 88.4414 206.935 87.3501V36.1717C206.935 35.0803 206.078 34.2228 204.986 34.2228H14.266V3.89782H249.928V119.585H49.3464H14.3439V89.26L14.266 89.299ZM469.102 226.619H3.89782V218.473H469.102V226.619V226.619ZM352.518 180.586V140.789H388.885V180.586H352.518ZM348.621 180.586H345.035V140.789H348.621V180.586ZM300.872 180.586H297.286V140.789H300.872V180.586ZM253.124 214.575H249.538V140.789H253.124V214.575ZM209.274 140.789H245.64V214.575H209.274V140.789ZM205.376 214.575H201.79V140.789H205.376V214.575ZM197.892 214.575H161.526V140.789H197.892V214.575ZM157.628 214.575H154.042V140.789H157.628V214.575ZM150.144 214.575H115.999V140.789H150.144V214.575ZM269.807 182.535V214.575H257.022V140.789H293.389V180.586H271.756C270.664 180.586 269.807 181.443 269.807 182.535ZM304.77 140.789H341.137V180.586H304.77V140.789ZM392.783 140.789H396.369V180.586H392.783V140.789ZM433.944 214.575H273.705V184.484H433.944V214.575ZM419.483 180.586H400.267V140.789H419.483V180.586ZM433.944 136.891H421.471H114.089C112.998 136.891 112.14 137.749 112.14 138.84V214.575H51.2953V123.522H251.877H433.944V136.891V136.891ZM469.102 119.624H435.932H253.865V30.1301H417.339V59.8315H293.505C292.414 59.8315 291.557 60.689 291.557 61.7804V110.191C291.557 111.283 292.414 112.14 293.505 112.14H395.862C396.954 112.14 397.811 111.283 397.811 110.191V87.9347H469.141V119.624H469.102Z"/>
</mask>
<path d="M471.051 83.9979H397.772V63.6903H419.249C420.34 63.6903 421.198 62.8328 421.198 61.7414V28.1422C421.198 27.0508 420.34 26.1933 419.249 26.1933H253.826V1.94891C253.826 0.85752 252.968 0 251.877 0H12.3171C11.2257 0 10.3682 0.85752 10.3682 1.94891V36.1717C10.3682 37.2631 11.2257 38.1206 12.3171 38.1206H22.8413V85.4011H12.3171C11.2257 85.4011 10.3682 86.2587 10.3682 87.3501V121.573C10.3682 122.664 11.2257 123.522 12.3171 123.522H47.3584V214.575H1.94891C0.85752 214.575 0 215.432 0 216.524V228.568C0 229.659 0.85752 230.517 1.94891 230.517H471.051C472.142 230.517 473 229.659 473 228.568V216.524C473 215.432 472.142 214.575 471.051 214.575H437.842V182.535C437.842 181.443 436.984 180.586 435.893 180.586H423.381V140.789H435.893C436.984 140.789 437.842 139.932 437.842 138.84V123.522H471.051C472.142 123.522 473 122.664 473 121.573V85.9858C473 84.8944 472.142 84.0369 471.051 84.0369V83.9979ZM393.874 85.9468V108.203H295.416V63.6903H393.874V85.9468ZM26.7391 38.1206H203.037V85.4011H26.7391V38.1206ZM14.266 89.299H204.986C206.078 89.299 206.935 88.4414 206.935 87.3501V36.1717C206.935 35.0803 206.078 34.2228 204.986 34.2228H14.266V3.89782H249.928V119.585H49.3464H14.3439V89.26L14.266 89.299ZM469.102 226.619H3.89782V218.473H469.102V226.619V226.619ZM352.518 180.586V140.789H388.885V180.586H352.518ZM348.621 180.586H345.035V140.789H348.621V180.586ZM300.872 180.586H297.286V140.789H300.872V180.586ZM253.124 214.575H249.538V140.789H253.124V214.575ZM209.274 140.789H245.64V214.575H209.274V140.789ZM205.376 214.575H201.79V140.789H205.376V214.575ZM197.892 214.575H161.526V140.789H197.892V214.575ZM157.628 214.575H154.042V140.789H157.628V214.575ZM150.144 214.575H115.999V140.789H150.144V214.575ZM269.807 182.535V214.575H257.022V140.789H293.389V180.586H271.756C270.664 180.586 269.807 181.443 269.807 182.535ZM304.77 140.789H341.137V180.586H304.77V140.789ZM392.783 140.789H396.369V180.586H392.783V140.789ZM433.944 214.575H273.705V184.484H433.944V214.575ZM419.483 180.586H400.267V140.789H419.483V180.586ZM433.944 136.891H421.471H114.089C112.998 136.891 112.14 137.749 112.14 138.84V214.575H51.2953V123.522H251.877H433.944V136.891V136.891ZM469.102 119.624H435.932H253.865V30.1301H417.339V59.8315H293.505C292.414 59.8315 291.557 60.689 291.557 61.7804V110.191C291.557 111.283 292.414 112.14 293.505 112.14H395.862C396.954 112.14 397.811 111.283 397.811 110.191V87.9347H469.141V119.624H469.102Z" fill="white" fill-opacity="0.1" stroke="#161616" stroke-width="2" mask="url(#path-1-inside-1_636_1334)"/>
<path d="M60.3672 42.2522C60.3672 41.4369 61.0008 40.8033 61.8161 40.8033C62.6313 40.8033 63.265 41.4369 63.265 42.2522V79.2814C63.265 80.0967 62.6313 80.7304 61.8161 80.7304C61.0008 80.7304 60.3672 80.0967 60.3672 79.2814V42.2522Z" fill="white" fill-opacity="0.1" stroke="#161616"/>
<path d="M105.506 42.2522C105.506 41.4369 106.14 40.8033 106.955 40.8033C107.77 40.8033 108.404 41.4369 108.404 42.2522V79.2814C108.404 80.0967 107.77 80.7304 106.955 80.7304C106.14 80.7304 105.506 80.0967 105.506 79.2814V42.2522Z" fill="white" fill-opacity="0.1" stroke="#161616"/>
<path d="M150.641 42.2522C150.641 41.4369 151.274 40.8033 152.09 40.8033C152.905 40.8033 153.538 41.4369 153.538 42.2522V79.2814C153.538 80.0967 152.905 80.7304 152.09 80.7304C151.274 80.7304 150.641 80.0967 150.641 79.2814V42.2522Z" fill="white" fill-opacity="0.1" stroke="#161616"/>
<path d="M325.242 104.189C325.242 105.004 324.608 105.637 323.793 105.637C322.977 105.637 322.344 105.004 322.344 104.189V68.1727C322.344 67.3575 322.977 66.7238 323.793 66.7238C324.608 66.7238 325.242 67.3575 325.242 68.1727V104.189Z" fill="white" fill-opacity="0.1" stroke="#161616"/>
<path d="M361.023 104.189C361.023 105.004 360.389 105.637 359.574 105.637C358.759 105.637 358.125 105.004 358.125 104.189V68.1727C358.125 67.3575 358.759 66.7238 359.574 66.7238C360.389 66.7238 361.023 67.3575 361.023 68.1727V104.189Z" fill="white" fill-opacity="0.1" stroke="#161616"/>
<path d="M126.481 167.837L126.472 167.847L126.463 167.856C126.218 168.128 125.853 168.275 125.47 168.275H125.431C125.098 168.275 124.718 168.134 124.421 167.837C123.836 167.253 123.836 166.361 124.421 165.777L140.012 150.186C140.596 149.601 141.488 149.601 142.072 150.186C142.657 150.77 142.657 151.662 142.072 152.246L126.481 167.837Z" fill="white" fill-opacity="0.1" stroke="#161616"/>
<path d="M238.938 184.292C239.451 183.779 240.2 183.716 240.771 184.103L240.959 184.292C241.544 184.876 241.544 185.768 240.959 186.352L225.485 201.826L225.476 201.836L225.467 201.845C225.226 202.113 224.824 202.265 224.474 202.265C224.141 202.265 223.761 202.123 223.464 201.826C222.879 201.242 222.879 200.35 223.464 199.766L238.938 184.292Z" fill="white" fill-opacity="0.1" stroke="#161616"/>
<path d="M167.336 205.841L167.19 205.695H167.168C166.717 205.115 166.76 204.318 167.298 203.781L167.298 203.78L184.331 186.708C184.915 186.124 185.807 186.124 186.391 186.708C186.976 187.293 186.976 188.184 186.391 188.769L186.391 188.769L169.358 205.841L169.348 205.851L169.34 205.86C169.099 206.128 168.697 206.279 168.347 206.279C168.014 206.279 167.634 206.138 167.336 205.841ZM169.711 206.195L186.745 189.122L166.983 206.195C167.373 206.584 167.879 206.779 168.347 206.779C168.815 206.779 169.361 206.584 169.711 206.195Z" fill="white" fill-opacity="0.1" stroke="#161616"/>
<path d="M280.844 150.186L260.966 170.065L260.612 169.711L260.966 170.065C260.381 170.649 260.381 171.541 260.966 172.125C261.263 172.422 261.643 172.563 261.976 172.563C262.326 172.563 262.728 172.412 262.969 172.144L262.978 172.134L262.987 172.125L282.866 152.246C283.45 151.662 283.45 150.77 282.866 150.186L282.677 149.997C282.107 149.61 281.357 149.673 280.844 150.186ZM280.844 150.186L280.491 149.832L280.844 150.186Z" fill="white" fill-opacity="0.1" stroke="#161616"/>
<path d="M285.208 160.125C285.721 159.612 286.47 159.549 287.041 159.936L287.23 160.125C287.814 160.709 287.814 161.601 287.23 162.185L280.252 169.162L280.243 169.172L280.234 169.181C279.993 169.449 279.592 169.601 279.242 169.601C278.908 169.601 278.528 169.459 278.231 169.162C277.647 168.578 277.647 167.686 278.231 167.102L285.208 160.125Z" fill="white" fill-opacity="0.1" stroke="#161616"/>
<path d="M335.876 150.186C336.389 149.673 337.138 149.61 337.709 149.997L337.898 150.186C338.482 150.77 338.482 151.662 337.898 152.246L323.671 166.473L323.661 166.482L323.652 166.492C323.411 166.76 323.01 166.911 322.66 166.911C322.326 166.911 321.946 166.77 321.649 166.473C321.065 165.889 321.065 164.997 321.649 164.413L335.876 150.186Z" fill="white" fill-opacity="0.1" stroke="#161616"/>
<path d="M370.96 155.175C371.473 154.662 372.223 154.599 372.793 154.986L372.982 155.175C373.566 155.759 373.566 156.651 372.982 157.235L373.308 157.561L372.982 157.235L362.419 167.798L362.409 167.807L362.401 167.817C362.159 168.085 361.758 168.236 361.408 168.236C361.074 168.236 360.694 168.095 360.397 167.798C359.813 167.214 359.813 166.322 360.397 165.738L370.96 155.175L370.609 154.823L370.96 155.175Z" fill="white" fill-opacity="0.1" stroke="#161616"/>
</svg>
