<svg width="24" height="24" viewBox="0 0 24 24" fill="none" xmlns="http://www.w3.org/2000/svg">
<path d="M20.7888 7.6934C20.328 7.3013 19.7731 7.06257 19.1885 6.95389C18.8855 4.58994 16.8825 2.75 14.4375 2.75H7.56248C5.11728 2.75 3.1142 4.59033 2.8114 6.95463C2.22736 7.0633 1.67207 7.30164 1.21116 7.6934C0.441783 8.348 0 9.30272 0 10.3125C0 11.1839 0.331008 12.0151 0.931878 12.6523C1.21789 12.9558 1.37498 13.4177 1.37498 13.9534V17.1875C1.37498 17.5675 1.68247 17.875 2.06247 17.875H4.12498V19.2499H5.49996V17.875H16.5V19.2499H17.875V17.875H19.9375C20.3175 17.875 20.625 17.5675 20.625 17.1875V13.9534C20.625 13.4177 20.7821 12.9558 21.0681 12.6523C21.6689 12.0151 21.9999 11.1839 21.9999 10.3125C22 9.30272 21.5583 8.348 20.7888 7.6934V7.6934ZM7.56253 4.12498H14.4375C16.1292 4.12498 17.5313 5.3559 17.8148 6.96761C16.272 7.31218 15.125 8.77319 15.125 10.4595V12.375H6.87499V10.4595C6.87499 8.77349 5.72825 7.31272 4.18515 6.9678C4.46868 5.35614 5.87079 4.12498 7.56253 4.12498V4.12498ZM20.0678 11.7097C19.5407 12.2689 19.25 13.0659 19.25 13.9534V16.5H2.75001V13.9534C2.75001 13.0659 2.45931 12.2689 1.93227 11.7097C1.57306 11.3283 1.37503 10.8321 1.37503 10.3125C1.37503 9.70693 1.6402 9.13358 2.10214 8.74079C2.57145 8.342 3.173 8.18086 3.78866 8.27885C4.76416 8.43731 5.50001 9.37523 5.50001 10.4595V12.375V13.75H16.5V12.375V10.4595C16.5 9.37523 17.2359 8.43731 18.2107 8.27885C18.831 8.17681 19.4279 8.34063 19.8979 8.74079C20.3598 9.13353 20.625 9.70693 20.625 10.3125C20.625 10.8321 20.4269 11.3283 20.0678 11.7097Z" fill="white"/>
<path d="M19.6815 10.1652C19.95 10.4337 19.95 10.869 19.6815 11.1375C19.413 11.406 18.9777 11.406 18.7092 11.1375C18.4407 10.869 18.4407 10.4337 18.7092 10.1652C18.9777 9.89676 19.413 9.89676 19.6815 10.1652Z" fill="white"/>
<path d="M4.01936 10.1652C4.28785 10.4337 4.28785 10.869 4.01936 11.1375C3.75086 11.406 3.31557 11.406 3.04707 11.1375C2.77858 10.869 2.77858 10.4337 3.04707 10.1652C3.31557 9.89676 3.75086 9.89676 4.01936 10.1652Z" fill="white"/>
</svg>
