<svg width="24" height="24" viewBox="0 0 24 24" fill="none" xmlns="http://www.w3.org/2000/svg">
<g clip-path="url(#clip0_654_1343)">
<path d="M19.4791 18.3334H15.6474C15.2679 18.3334 14.9599 18.0254 14.9599 17.6459C14.9599 17.2664 15.2679 16.9584 15.6474 16.9584H18.9969L20.3307 13.2917H1.66825L3.002 16.9584H6.35242C6.73192 16.9584 7.03992 17.2664 7.03992 17.6459C7.03992 18.0254 6.73192 18.3334 6.35242 18.3334H2.52075C2.232 18.3334 1.9735 18.1528 1.8745 17.8806L0.0411714 12.8389C-0.034912 12.6281 -0.00466197 12.3934 0.124588 12.2092C0.252921 12.0258 0.462838 11.9167 0.687421 11.9167H21.3124C21.537 11.9167 21.7469 12.0258 21.8753 12.2101C22.0045 12.3934 22.0348 12.629 21.9587 12.8398L20.1253 17.8815C20.0263 18.1528 19.7678 18.3334 19.4791 18.3334V18.3334Z" fill="white"/>
<path d="M14.8964 22.0003C14.8616 22.0003 14.8268 21.9976 14.791 21.9921C14.4161 21.9343 14.1585 21.5832 14.2163 21.2083L15.011 16.042H6.98837L7.78312 21.2083C7.84087 21.5842 7.58328 21.9343 7.20837 21.9921C6.83345 22.0535 6.48145 21.7932 6.42462 21.4173L5.50795 15.459C5.4777 15.261 5.53453 15.0584 5.66562 14.9062C5.7967 14.7541 5.98645 14.667 6.1872 14.667H15.8122C16.0129 14.667 16.2036 14.755 16.3338 14.9072C16.4639 15.0593 16.5217 15.261 16.4914 15.4599L15.5748 21.4182C15.5234 21.7574 15.2301 22.0003 14.8964 22.0003V22.0003Z" fill="white"/>
<path d="M20.6246 13.0623C20.2451 13.0623 19.9371 12.7543 19.9371 12.3748C19.9371 10.5607 18.9672 8.8438 17.4061 7.89322C17.0816 7.69522 16.979 7.27264 17.177 6.94814C17.375 6.62364 17.7976 6.52097 18.1221 6.71897C20.0892 7.91797 21.3111 10.085 21.3111 12.3748C21.3121 12.7543 21.0041 13.0623 20.6246 13.0623Z" fill="white"/>
<path d="M16.959 8.25C17.7184 8.25 18.334 7.63439 18.334 6.875C18.334 6.11561 17.7184 5.5 16.959 5.5C16.1996 5.5 15.584 6.11561 15.584 6.875C15.584 7.63439 16.1996 8.25 16.959 8.25Z" fill="white"/>
<path d="M11.0007 7.33333C8.97848 7.33333 7.33398 5.68883 7.33398 3.66667C7.33398 1.6445 8.97848 0 11.0007 0C13.0228 0 14.6673 1.6445 14.6673 3.66667C14.6673 5.68883 13.0228 7.33333 11.0007 7.33333ZM11.0007 1.375C9.73657 1.375 8.70898 2.4035 8.70898 3.66667C8.70898 4.92983 9.73657 5.95833 11.0007 5.95833C12.2647 5.95833 13.2923 4.92983 13.2923 3.66667C13.2923 2.4035 12.2647 1.375 11.0007 1.375Z" fill="white"/>
<path d="M17.875 13.2917C17.4955 13.2917 17.1875 12.9837 17.1875 12.6042C17.1875 10.9615 15.851 9.625 14.2083 9.625H7.79167C6.149 9.625 4.8125 10.9615 4.8125 12.6042C4.8125 12.9837 4.5045 13.2917 4.125 13.2917C3.7455 13.2917 3.4375 12.9837 3.4375 12.6042C3.4375 10.2034 5.39092 8.25 7.79167 8.25H14.2083C16.6091 8.25 18.5625 10.2034 18.5625 12.6042C18.5625 12.9837 18.2545 13.2917 17.875 13.2917Z" fill="white"/>
</g>
<defs>
<clipPath id="clip0_654_1343">
<rect width="22" height="22" fill="white"/>
</clipPath>
</defs>
</svg>
