<svg width="24" height="24" viewBox="0 0 24 24" fill="none" xmlns="http://www.w3.org/2000/svg">
<g clip-path="url(#clip0_468_2674)">
<path d="M21.3506 10.875H16.9285C17.8383 9.75769 18.3516 8.35016 18.3516 6.86719C18.3516 3.36493 15.5023 0.515625 12 0.515625C8.49774 0.515625 5.64844 3.36493 5.64844 6.86719C5.64844 8.35016 6.16168 9.75769 7.07153 10.875H2.64935L0 16.4526C0 17.166 0 22.7593 0 23.5312H24C24 22.7386 24 17.7222 24 16.4526L21.3506 10.875ZM7.05469 6.86719C7.05469 4.14038 9.27319 1.92188 12 1.92188C14.7268 1.92188 16.9453 4.14038 16.9453 6.86719C16.9453 8.53052 16.1166 10.0724 14.7281 10.9922C13.9188 11.5289 12.9754 11.8125 12 11.8125C11.0246 11.8125 10.0811 11.5289 9.27155 10.992C7.88342 10.0724 7.05469 8.53052 7.05469 6.86719ZM3.53815 12.2812H8.67847C9.67676 12.8952 10.8203 13.2188 12 13.2188C13.1799 13.2188 14.3234 12.895 15.3215 12.2812H20.4619L22.4658 16.5H1.53424L3.53815 12.2812ZM22.5938 22.125H1.40625V17.9062H22.5938V22.125Z" fill="white"/>
<path d="M12 10.875C14.2099 10.875 16.0078 9.07709 16.0078 6.86719C16.0078 4.65729 14.2099 2.85938 12 2.85938C9.7901 2.85938 7.99219 4.65729 7.99219 6.86719C7.99219 9.07709 9.7901 10.875 12 10.875ZM12 4.26562C13.4344 4.26562 14.6016 5.43274 14.6016 6.86719C14.6016 8.30164 13.4344 9.46875 12 9.46875C10.5656 9.46875 9.39844 8.30164 9.39844 6.86719C9.39844 5.43274 10.5656 4.26562 12 4.26562Z" fill="white"/>
<path d="M5.83594 13.6875H18.1641V15.0938H5.83594V13.6875Z" fill="white"/>
</g>
<defs>
<clipPath id="clip0_468_2674">
<rect width="24" height="24" fill="white"/>
</clipPath>
</defs>
</svg>
