<svg width="24" height="24" viewBox="0 0 24 24" fill="none" xmlns="http://www.w3.org/2000/svg">
<path d="M17.1562 21.625C15.8294 21.625 14.75 20.5456 14.75 19.2187V10.1898C13.4678 9.37236 12.6875 7.96642 12.6875 6.42711C12.6875 4.74274 13.6211 3.21924 15.124 2.44992C15.3378 2.3413 15.5922 2.35024 15.7964 2.47536C16.0006 2.60117 16.125 2.82255 16.125 3.06249V6.03455L17.1562 6.44705L18.1875 6.03455V3.06249C18.1875 2.82255 18.3119 2.60117 18.5161 2.47536C18.7203 2.35024 18.9747 2.3413 19.1885 2.44992C20.6914 3.21992 21.625 4.74274 21.625 6.4278C21.625 7.96642 20.8447 9.37236 19.5625 10.1905V19.2187C19.5625 20.5456 18.4831 21.625 17.1562 21.625V21.625ZM14.75 4.48286C14.3121 5.02255 14.0625 5.70317 14.0625 6.42711C14.0625 7.59174 14.7094 8.64705 15.751 9.18055C15.9806 9.29811 16.125 9.53461 16.125 9.79242V19.2187C16.125 19.7873 16.5877 20.25 17.1562 20.25C17.7248 20.25 18.1875 19.7873 18.1875 19.2187V9.79242C18.1875 9.53461 18.3319 9.29811 18.5615 9.18055C19.6031 8.64705 20.25 7.59242 20.25 6.4278C20.25 5.70386 20.0004 5.02324 19.5625 4.48355V6.49999C19.5625 6.78117 19.3913 7.03349 19.1307 7.13867L17.412 7.82617C17.2477 7.89217 17.0655 7.89217 16.9012 7.82617L15.1824 7.13867C14.9212 7.03349 14.75 6.78117 14.75 6.49999V4.48286Z" fill="white"/>
<path d="M12.7384 21.625H11.2623C10.548 21.625 9.94575 21.0674 9.89144 20.3559L9.80481 19.2318C9.33319 19.0888 8.87669 18.8991 8.44012 18.6653L7.5835 19.3989C7.04106 19.8643 6.22156 19.832 5.71694 19.3281L4.67194 18.2824C4.16731 17.7778 4.13569 16.9576 4.60044 16.4151L5.334 15.5592C5.10025 15.1226 4.9105 14.6661 4.7675 14.1945L3.64412 14.1086C2.93256 14.0549 2.375 13.4527 2.375 12.7384V11.2616C2.375 10.5473 2.93256 9.94506 3.64481 9.89075L4.76819 9.80481C4.91119 9.3325 5.10094 8.876 5.33469 8.44012L4.60044 7.58281C4.13569 7.04106 4.16731 6.22156 4.67262 5.71556L5.71625 4.67125C6.22156 4.16594 7.04175 4.135 7.5835 4.59975L8.44012 5.33331C8.87669 5.09956 9.33319 4.90981 9.80481 4.76681L9.89144 3.64275C9.94575 2.93256 10.548 2.375 11.2616 2.375H12C12.3795 2.375 12.6875 2.68231 12.6875 3.0625C12.6875 3.44269 12.3795 3.75 12 3.75H11.2616L11.1379 5.35944C11.1145 5.65919 10.8993 5.90875 10.6071 5.97612C9.94231 6.12944 9.30981 6.39138 8.7275 6.75644C8.47381 6.91663 8.1445 6.89256 7.91556 6.69525L6.68837 5.64406L5.64475 6.68906L6.69594 7.91556C6.89187 8.14381 6.91594 8.47312 6.75644 8.7275C6.39206 9.3105 6.12944 9.943 5.97612 10.6071C5.90875 10.9 5.6585 11.1152 5.35875 11.1379L3.75 11.2616V12.7384L5.35875 12.8621C5.6585 12.8848 5.90875 13.1007 5.97612 13.3929C6.12944 14.0577 6.39137 14.6902 6.75644 15.2725C6.91594 15.5269 6.89119 15.8562 6.69594 16.0844L5.64475 17.3109L6.68906 18.3559L7.91556 17.3047C8.1445 17.1081 8.47381 17.0841 8.7275 17.2436C9.3105 17.6079 9.943 17.8706 10.6071 18.0239C10.9 18.0919 11.1152 18.3415 11.1379 18.6406L11.2616 20.25H12.7377C12.7666 19.8719 13.0959 19.5893 13.4761 19.6175C13.8549 19.6464 14.1381 19.9771 14.1086 20.3559C14.0542 21.0674 13.452 21.625 12.7384 21.625V21.625Z" fill="white"/>
<path d="M7.1875 12C7.1875 9.63915 8.87462 7.64334 11.1991 7.25421C11.5724 7.18752 11.9285 7.44396 11.9904 7.81865C12.0529 8.19334 11.8006 8.5474 11.4259 8.60996C9.767 8.8884 8.5625 10.3143 8.5625 12C8.5625 14.374 10.9206 16.0295 13.1461 15.2423C13.5022 15.1151 13.8968 15.3021 14.024 15.6603C14.1505 16.0185 13.9635 16.411 13.6053 16.5375C10.4751 17.6451 7.1875 15.311 7.1875 12Z" fill="white"/>
</svg>
