<svg width="24" height="24" viewBox="0 0 24 24" fill="none" xmlns="http://www.w3.org/2000/svg">
<path fill-rule="evenodd" clip-rule="evenodd" d="M8.60352 16.8087C8.60352 16.4562 8.89209 16.1704 9.24806 16.1704H12.7535C13.1095 16.1704 13.398 16.4562 13.398 16.8087C13.398 17.1612 13.1095 17.447 12.7535 17.447H9.24806C8.89209 17.447 8.60352 17.1612 8.60352 16.8087Z" fill="white"/>
<path fill-rule="evenodd" clip-rule="evenodd" d="M1.29697 8.62421C1.34644 8.31395 1.61647 8.08545 1.93363 8.08545H20.0667C20.3839 8.08545 20.6539 8.31395 20.7034 8.62421L21.9925 16.7094C22.0219 16.8938 21.9683 17.0817 21.8458 17.2237C21.7234 17.3656 21.5443 17.4473 21.3558 17.4473H18.7007C18.3448 17.4473 18.0562 17.1615 18.0562 16.809C18.0562 16.4565 18.3448 16.1707 18.7007 16.1707H20.6015L19.516 9.36207H2.48438L1.39884 16.1707H3.29963C3.6556 16.1707 3.94417 16.4565 3.94417 16.809C3.94417 17.1615 3.6556 17.4473 3.29963 17.4473H0.644546C0.456044 17.4473 0.276989 17.3656 0.154533 17.2237C0.0320765 17.0817 -0.0215073 16.8938 0.00789193 16.7094L1.29697 8.62421Z" fill="white"/>
<path fill-rule="evenodd" clip-rule="evenodd" d="M15.7266 11.9148C15.0147 11.9148 14.4375 12.4864 14.4375 13.1914C14.4375 13.8965 15.0147 14.468 15.7266 14.468C16.4385 14.468 17.0157 13.8965 17.0157 13.1914C17.0157 12.4864 16.4385 11.9148 15.7266 11.9148ZM13.1484 13.1914C13.1484 11.7813 14.3027 10.6382 15.7266 10.6382C17.1505 10.6382 18.3048 11.7813 18.3048 13.1914C18.3048 14.6015 17.1505 15.7446 15.7266 15.7446C14.3027 15.7446 13.1484 14.6015 13.1484 13.1914Z" fill="white"/>
<path fill-rule="evenodd" clip-rule="evenodd" d="M6.27348 11.9148C5.56154 11.9148 4.9844 12.4864 4.9844 13.1914C4.9844 13.8965 5.56154 14.468 6.27348 14.468C6.98542 14.468 7.56256 13.8965 7.56256 13.1914C7.56256 12.4864 6.98542 11.9148 6.27348 11.9148ZM3.69531 13.1914C3.69531 11.7813 4.8496 10.6382 6.27348 10.6382C7.69736 10.6382 8.85164 11.7813 8.85164 13.1914C8.85164 14.6015 7.69736 15.7446 6.27348 15.7446C4.8496 15.7446 3.69531 14.6015 3.69531 13.1914Z" fill="white"/>
<path fill-rule="evenodd" clip-rule="evenodd" d="M15.7266 5.10645C14.1841 5.10645 12.9336 6.34482 12.9336 7.87245V8.08522H18.5196V7.87245C18.5196 6.34482 17.2692 5.10645 15.7266 5.10645ZM11.6445 7.87245C11.6445 5.63977 13.4721 3.82983 15.7266 3.82983C17.9811 3.82983 19.8087 5.63977 19.8087 7.87245V8.72353C19.8087 9.07606 19.5201 9.36184 19.1642 9.36184H12.2891C11.9331 9.36184 11.6445 9.07606 11.6445 8.72353V7.87245Z" fill="white"/>
<path fill-rule="evenodd" clip-rule="evenodd" d="M15.7266 1.27662C15.0147 1.27662 14.4375 1.84818 14.4375 2.55323C14.4375 3.25829 15.0147 3.82985 15.7266 3.82985C16.4385 3.82985 17.0157 3.25829 17.0157 2.55323C17.0157 1.84818 16.4385 1.27662 15.7266 1.27662ZM13.1484 2.55323C13.1484 1.14312 14.3027 0 15.7266 0C17.1505 0 18.3048 1.14312 18.3048 2.55323C18.3048 3.96334 17.1505 5.10646 15.7266 5.10646C14.3027 5.10646 13.1484 3.96334 13.1484 2.55323Z" fill="white"/>
<path fill-rule="evenodd" clip-rule="evenodd" d="M6.2735 5.10645C4.73095 5.10645 3.48049 6.34482 3.48049 7.87245V8.08522H9.06651V7.87245C9.06651 6.34482 7.81605 5.10645 6.2735 5.10645ZM2.19141 7.87245C2.19141 5.63977 4.01901 3.82983 6.2735 3.82983C8.52799 3.82983 10.3556 5.63977 10.3556 7.87245V8.72353C10.3556 9.07606 10.067 9.36184 9.71105 9.36184H2.83595C2.47998 9.36184 2.19141 9.07606 2.19141 8.72353V7.87245Z" fill="white"/>
<path fill-rule="evenodd" clip-rule="evenodd" d="M6.27348 1.27662C5.56154 1.27662 4.9844 1.84818 4.9844 2.55323C4.9844 3.25829 5.56154 3.82985 6.27348 3.82985C6.98542 3.82985 7.56256 3.25829 7.56256 2.55323C7.56256 1.84818 6.98542 1.27662 6.27348 1.27662ZM3.69531 2.55323C3.69531 1.14312 4.8496 0 6.27348 0C7.69736 0 8.85164 1.14312 8.85164 2.55323C8.85164 3.96334 7.69736 5.10646 6.27348 5.10646C4.8496 5.10646 3.69531 3.96334 3.69531 2.55323Z" fill="white"/>
<path fill-rule="evenodd" clip-rule="evenodd" d="M15.7266 15.7449C14.1841 15.7449 12.9336 16.9832 12.9336 18.5109V18.7236H18.5196V18.5109C18.5196 16.9832 17.2692 15.7449 15.7266 15.7449ZM11.6445 18.5109C11.6445 16.2782 13.4721 14.4683 15.7266 14.4683C17.9811 14.4683 19.8087 16.2782 19.8087 18.5109V19.362C19.8087 19.7145 19.5201 20.0003 19.1642 20.0003H12.2891C11.9331 20.0003 11.6445 19.7145 11.6445 19.362V18.5109Z" fill="white"/>
<path fill-rule="evenodd" clip-rule="evenodd" d="M6.2735 15.7449C4.73095 15.7449 3.48049 16.9832 3.48049 18.5109V18.7236H9.06651V18.5109C9.06651 16.9832 7.81605 15.7449 6.2735 15.7449ZM2.19141 18.5109C2.19141 16.2782 4.01901 14.4683 6.2735 14.4683C8.52799 14.4683 10.3556 16.2782 10.3556 18.5109V19.362C10.3556 19.7145 10.067 20.0003 9.71105 20.0003H2.83595C2.47998 20.0003 2.19141 19.7145 2.19141 19.362V18.5109Z" fill="white"/>
</svg>
