<svg width="22" height="22" viewBox="0 0 22 22" fill="none" xmlns="http://www.w3.org/2000/svg">
<mask id="path-1-inside-1_768_96408" fill="white">
<path fill-rule="evenodd" clip-rule="evenodd" d="M2.57812 0C1.15625 0 0 1.15625 0 2.57812C0 4 1.15625 5.15625 2.57812 5.15625C4 5.15625 5.15625 4 5.15625 2.57812C5.15625 1.15625 4 0 2.57812 0ZM0 19.4219C0 18 1.15625 16.8438 2.57812 16.8438C4 16.8438 5.15625 18 5.15625 19.4219C5.15625 20.8438 4 22 2.57812 22C1.15625 22 0 20.8438 0 19.4219ZM16.8438 19.4219C16.8438 18 18 16.8438 19.4219 16.8438C20.8438 16.8438 22 18 22 19.4219C22 20.8438 20.8438 22 19.4219 22C18 22 16.8438 20.8438 16.8438 19.4219ZM18.1328 15.7922V8.26813L20.7109 5.69V15.7922C20.3057 15.6478 19.8761 15.5547 19.4219 15.5547C18.9677 15.5547 18.538 15.6478 18.1328 15.7922ZM6.44531 9.66797H3.86719V6.20778C3.46199 6.35224 3.03235 6.44531 2.57812 6.44531C2.1239 6.44531 1.69426 6.35216 1.28906 6.2077V15.7922C1.69426 15.6478 2.1239 15.5547 2.57812 15.5547C3.03235 15.5547 3.46199 15.6478 3.86719 15.7922V12.2461H6.44531C6.80127 12.2461 7.08984 11.9575 7.08984 11.6016V10.3125C7.08984 9.95646 6.80127 9.66797 6.44531 9.66797ZM6.44473 2.57812C6.44473 2.1239 6.35166 1.69426 6.20719 1.28906H16.3094L13.7313 3.86719H6.20719C6.35166 3.46199 6.44473 3.03235 6.44473 2.57812ZM15.7917 20.7109C15.6473 20.3057 15.5541 19.8761 15.5541 19.4219C15.5541 18.9677 15.6472 18.538 15.7916 18.1328H12.3314V15.5547C12.3314 15.1986 12.0429 14.9102 11.6869 14.9102H10.3979C10.0419 14.9102 9.75332 15.1986 9.75332 15.5547V18.1328H6.20719C6.35166 18.538 6.44473 18.9677 6.44473 19.4219C6.44473 19.8761 6.35166 20.3057 6.20719 20.7109H15.7917ZM18.8892 0.533748C19.6003 -0.177428 20.7561 -0.177428 21.4673 0.533748C22.1785 1.24492 22.1785 2.4007 21.4673 3.11187L19.2646 5.31454C19.0927 4.70382 18.7831 4.13878 18.3227 3.67837C17.8598 3.21543 17.2793 2.91933 16.6641 2.75884L18.8892 0.533748ZM17.4087 4.58985C16.8962 4.0774 16.2128 3.84683 15.54 3.88039L11.625 7.7954C13.0292 8.05506 13.9536 9.12253 14.1806 10.396L18.1181 6.45852C18.1517 5.78588 17.9211 5.10264 17.4087 4.58985ZM9.51659 11.6658L10.3528 9.15647C11.776 8.67136 12.9752 9.70463 12.9752 10.957V11.5974L10.3324 12.4809C9.82846 12.6493 9.34863 12.17 9.51659 11.6658Z"/>
</mask>
<path fill-rule="evenodd" clip-rule="evenodd" d="M2.57812 0C1.15625 0 0 1.15625 0 2.57812C0 4 1.15625 5.15625 2.57812 5.15625C4 5.15625 5.15625 4 5.15625 2.57812C5.15625 1.15625 4 0 2.57812 0ZM0 19.4219C0 18 1.15625 16.8438 2.57812 16.8438C4 16.8438 5.15625 18 5.15625 19.4219C5.15625 20.8438 4 22 2.57812 22C1.15625 22 0 20.8438 0 19.4219ZM16.8438 19.4219C16.8438 18 18 16.8438 19.4219 16.8438C20.8438 16.8438 22 18 22 19.4219C22 20.8438 20.8438 22 19.4219 22C18 22 16.8438 20.8438 16.8438 19.4219ZM18.1328 15.7922V8.26813L20.7109 5.69V15.7922C20.3057 15.6478 19.8761 15.5547 19.4219 15.5547C18.9677 15.5547 18.538 15.6478 18.1328 15.7922ZM6.44531 9.66797H3.86719V6.20778C3.46199 6.35224 3.03235 6.44531 2.57812 6.44531C2.1239 6.44531 1.69426 6.35216 1.28906 6.2077V15.7922C1.69426 15.6478 2.1239 15.5547 2.57812 15.5547C3.03235 15.5547 3.46199 15.6478 3.86719 15.7922V12.2461H6.44531C6.80127 12.2461 7.08984 11.9575 7.08984 11.6016V10.3125C7.08984 9.95646 6.80127 9.66797 6.44531 9.66797ZM6.44473 2.57812C6.44473 2.1239 6.35166 1.69426 6.20719 1.28906H16.3094L13.7313 3.86719H6.20719C6.35166 3.46199 6.44473 3.03235 6.44473 2.57812ZM15.7917 20.7109C15.6473 20.3057 15.5541 19.8761 15.5541 19.4219C15.5541 18.9677 15.6472 18.538 15.7916 18.1328H12.3314V15.5547C12.3314 15.1986 12.0429 14.9102 11.6869 14.9102H10.3979C10.0419 14.9102 9.75332 15.1986 9.75332 15.5547V18.1328H6.20719C6.35166 18.538 6.44473 18.9677 6.44473 19.4219C6.44473 19.8761 6.35166 20.3057 6.20719 20.7109H15.7917ZM18.8892 0.533748C19.6003 -0.177428 20.7561 -0.177428 21.4673 0.533748C22.1785 1.24492 22.1785 2.4007 21.4673 3.11187L19.2646 5.31454C19.0927 4.70382 18.7831 4.13878 18.3227 3.67837C17.8598 3.21543 17.2793 2.91933 16.6641 2.75884L18.8892 0.533748ZM17.4087 4.58985C16.8962 4.0774 16.2128 3.84683 15.54 3.88039L11.625 7.7954C13.0292 8.05506 13.9536 9.12253 14.1806 10.396L18.1181 6.45852C18.1517 5.78588 17.9211 5.10264 17.4087 4.58985ZM9.51659 11.6658L10.3528 9.15647C11.776 8.67136 12.9752 9.70463 12.9752 10.957V11.5974L10.3324 12.4809C9.82846 12.6493 9.34863 12.17 9.51659 11.6658Z" fill="white"/>
<path d="M18.1328 8.26813L17.9207 8.056L17.8328 8.14386V8.26813H18.1328ZM18.1328 15.7922H17.8328V16.2177L18.2336 16.0748L18.1328 15.7922ZM20.7109 5.69H21.0109V4.96574L20.4988 5.47787L20.7109 5.69ZM20.7109 15.7922L20.6102 16.0748L21.0109 16.2177V15.7922H20.7109ZM3.86719 9.66797H3.56719V9.96797H3.86719V9.66797ZM3.86719 6.20778H4.16719V5.78233L3.76644 5.92521L3.86719 6.20778ZM1.28906 6.2077L1.38981 5.92512L0.989062 5.78224V6.2077H1.28906ZM1.28906 15.7922H0.989062V16.2177L1.38981 16.0748L1.28906 15.7922ZM3.86719 15.7922L3.76644 16.0748L4.16719 16.2177V15.7922H3.86719ZM3.86719 12.2461V11.9461H3.56719V12.2461H3.86719ZM6.20719 1.28906V0.989062H5.78174L5.92462 1.38981L6.20719 1.28906ZM16.3094 1.28906L16.5215 1.50119L17.0337 0.989062H16.3094V1.28906ZM13.7313 3.86719V4.16719H13.8555L13.9434 4.07932L13.7313 3.86719ZM6.20719 3.86719L5.92462 3.76644L5.78174 4.16719H6.20719V3.86719ZM15.7917 20.7109V21.0109H16.2172L16.0743 20.6102L15.7917 20.7109ZM15.7916 18.1328L16.0742 18.2336L16.2171 17.8328H15.7916V18.1328ZM12.3314 18.1328H12.0314V18.4328H12.3314V18.1328ZM9.75332 18.1328V18.4328H10.0533V18.1328H9.75332ZM6.20719 18.1328V17.8328H5.78174L5.92462 18.2336L6.20719 18.1328ZM6.20719 20.7109L5.92462 20.6102L5.78174 21.0109H6.20719V20.7109ZM21.4673 0.533748L21.6794 0.321616L21.6794 0.321616L21.4673 0.533748ZM18.8892 0.533748L18.677 0.321616L18.677 0.321616L18.8892 0.533748ZM21.4673 3.11187L21.2551 2.89974L21.2551 2.89974L21.4673 3.11187ZM19.2646 5.31454L18.9758 5.39583L19.1146 5.8888L19.4767 5.52667L19.2646 5.31454ZM18.3227 3.67837L18.1105 3.8905L18.1105 3.89051L18.3227 3.67837ZM16.6641 2.75884L16.4519 2.54671L16.0817 2.91697L16.5883 3.04913L16.6641 2.75884ZM15.54 3.88039L15.5251 3.58076L15.4096 3.58652L15.3279 3.66826L15.54 3.88039ZM17.4087 4.58985L17.6209 4.37779L17.6208 4.37772L17.4087 4.58985ZM11.625 7.7954L11.4129 7.58327L11.0095 7.98667L11.5704 8.0904L11.625 7.7954ZM14.1806 10.396L13.8853 10.4487L13.9862 11.0147L14.3927 10.6082L14.1806 10.396ZM18.1181 6.45852L18.3303 6.67065L18.412 6.58892L18.4178 6.47348L18.1181 6.45852ZM10.3528 9.15647L10.256 8.87252L10.1152 8.92051L10.0681 9.06164L10.3528 9.15647ZM9.51659 11.6658L9.23198 11.571L9.23197 11.571L9.51659 11.6658ZM12.9752 11.5974L13.0703 11.8819L13.2752 11.8134V11.5974H12.9752ZM10.3324 12.4809L10.4275 12.7654L10.4275 12.7654L10.3324 12.4809ZM0.3 2.57812C0.3 1.32193 1.32193 0.3 2.57812 0.3V-0.3C0.990561 -0.3 -0.3 0.990561 -0.3 2.57812H0.3ZM2.57812 4.85625C1.32193 4.85625 0.3 3.83432 0.3 2.57812H-0.3C-0.3 4.16569 0.990561 5.45625 2.57812 5.45625V4.85625ZM4.85625 2.57812C4.85625 3.83432 3.83432 4.85625 2.57812 4.85625V5.45625C4.16569 5.45625 5.45625 4.16569 5.45625 2.57812H4.85625ZM2.57812 0.3C3.83432 0.3 4.85625 1.32193 4.85625 2.57812H5.45625C5.45625 0.990561 4.16569 -0.3 2.57812 -0.3V0.3ZM2.57812 16.5437C0.990561 16.5437 -0.3 17.8343 -0.3 19.4219H0.3C0.3 18.1657 1.32193 17.1438 2.57812 17.1438V16.5437ZM5.45625 19.4219C5.45625 17.8343 4.16569 16.5437 2.57812 16.5437V17.1438C3.83432 17.1438 4.85625 18.1657 4.85625 19.4219H5.45625ZM2.57812 22.3C4.16569 22.3 5.45625 21.0094 5.45625 19.4219H4.85625C4.85625 20.6781 3.83432 21.7 2.57812 21.7V22.3ZM-0.3 19.4219C-0.3 21.0094 0.990561 22.3 2.57812 22.3V21.7C1.32193 21.7 0.3 20.6781 0.3 19.4219H-0.3ZM19.4219 16.5437C17.8343 16.5437 16.5437 17.8343 16.5437 19.4219H17.1438C17.1438 18.1657 18.1657 17.1438 19.4219 17.1438V16.5437ZM22.3 19.4219C22.3 17.8343 21.0094 16.5437 19.4219 16.5437V17.1438C20.6781 17.1438 21.7 18.1657 21.7 19.4219H22.3ZM19.4219 22.3C21.0094 22.3 22.3 21.0094 22.3 19.4219H21.7C21.7 20.6781 20.6781 21.7 19.4219 21.7V22.3ZM16.5437 19.4219C16.5437 21.0094 17.8343 22.3 19.4219 22.3V21.7C18.1657 21.7 17.1438 20.6781 17.1438 19.4219H16.5437ZM17.8328 8.26813V15.7922H18.4328V8.26813H17.8328ZM20.4988 5.47787L17.9207 8.056L18.3449 8.48026L20.9231 5.90213L20.4988 5.47787ZM21.0109 15.7922V5.69H20.4109V15.7922H21.0109ZM19.4219 15.8547C19.8345 15.8547 20.2298 15.9392 20.6102 16.0748L20.8117 15.5096C20.3817 15.3563 19.9176 15.2547 19.4219 15.2547V15.8547ZM18.2336 16.0748C18.614 15.9392 19.0092 15.8547 19.4219 15.8547V15.2547C18.9261 15.2547 18.462 15.3563 18.0321 15.5096L18.2336 16.0748ZM3.86719 9.96797H6.44531V9.36797H3.86719V9.96797ZM3.56719 6.20778V9.66797H4.16719V6.20778H3.56719ZM2.57812 6.74531C3.07389 6.74531 3.53798 6.64365 3.96793 6.49036L3.76644 5.92521C3.38601 6.06084 2.9908 6.14531 2.57812 6.14531V6.74531ZM1.18832 6.49028C1.61823 6.64355 2.08232 6.74531 2.57812 6.74531V6.14531C2.16548 6.14531 1.77028 6.06077 1.38981 5.92512L1.18832 6.49028ZM1.58906 15.7922V6.2077H0.989062V15.7922H1.58906ZM2.57812 15.2547C2.08236 15.2547 1.61827 15.3564 1.18832 15.5096L1.38981 16.0748C1.77024 15.9392 2.16545 15.8547 2.57812 15.8547V15.2547ZM3.96793 15.5096C3.53798 15.3564 3.07389 15.2547 2.57812 15.2547V15.8547C2.9908 15.8547 3.38601 15.9392 3.76644 16.0748L3.96793 15.5096ZM3.56719 12.2461V15.7922H4.16719V12.2461H3.56719ZM6.44531 11.9461H3.86719V12.5461H6.44531V11.9461ZM6.78984 11.6016C6.78984 11.7918 6.63558 11.9461 6.44531 11.9461V12.5461C6.96695 12.5461 7.38984 12.1232 7.38984 11.6016H6.78984ZM6.78984 10.3125V11.6016H7.38984V10.3125H6.78984ZM6.44531 9.96797C6.63561 9.96797 6.78984 10.1222 6.78984 10.3125H7.38984C7.38984 9.79075 6.96693 9.36797 6.44531 9.36797V9.96797ZM5.92462 1.38981C6.06025 1.77024 6.14473 2.16545 6.14473 2.57812H6.74473C6.74473 2.08236 6.64306 1.61827 6.48977 1.18832L5.92462 1.38981ZM16.3094 0.989062H6.20719V1.58906H16.3094V0.989062ZM13.9434 4.07932L16.5215 1.50119L16.0973 1.07693L13.5191 3.65506L13.9434 4.07932ZM6.20719 4.16719H13.7313V3.56719H6.20719V4.16719ZM6.14473 2.57812C6.14473 2.9908 6.06025 3.38601 5.92462 3.76644L6.48977 3.96793C6.64306 3.53798 6.74473 3.07389 6.74473 2.57812H6.14473ZM15.2541 19.4219C15.2541 19.9177 15.3559 20.3818 15.5091 20.8117L16.0743 20.6102C15.9386 20.2297 15.8541 19.8345 15.8541 19.4219H15.2541ZM15.5091 18.0321C15.3558 18.462 15.2541 18.9261 15.2541 19.4219H15.8541C15.8541 19.0092 15.9386 18.614 16.0742 18.2336L15.5091 18.0321ZM12.3314 18.4328H15.7916V17.8328H12.3314V18.4328ZM12.0314 15.5547V18.1328H12.6314V15.5547H12.0314ZM11.6869 15.2102C11.8772 15.2102 12.0314 15.3644 12.0314 15.5547H12.6314C12.6314 15.0329 12.2085 14.6102 11.6869 14.6102V15.2102ZM10.3979 15.2102H11.6869V14.6102H10.3979V15.2102ZM10.0533 15.5547C10.0533 15.3644 10.2076 15.2102 10.3979 15.2102V14.6102C9.87624 14.6102 9.45332 15.0329 9.45332 15.5547H10.0533ZM10.0533 18.1328V15.5547H9.45332V18.1328H10.0533ZM6.20719 18.4328H9.75332V17.8328H6.20719V18.4328ZM6.74473 19.4219C6.74473 18.9261 6.64306 18.462 6.48977 18.0321L5.92462 18.2336C6.06025 18.614 6.14473 19.0092 6.14473 19.4219H6.74473ZM6.48977 20.8117C6.64306 20.3817 6.74473 19.9176 6.74473 19.4219H6.14473C6.14473 19.8346 6.06025 20.2298 5.92462 20.6102L6.48977 20.8117ZM15.7917 20.4109H6.20719V21.0109H15.7917V20.4109ZM21.6794 0.321616C20.8511 -0.506717 19.5054 -0.506717 18.677 0.321616L19.1013 0.74588C19.6953 0.151862 20.6611 0.151862 21.2551 0.74588L21.6794 0.321616ZM21.6794 3.324C22.5077 2.49567 22.5077 1.14995 21.6794 0.321616L21.2551 0.74588C21.8492 1.3399 21.8492 2.30572 21.2551 2.89974L21.6794 3.324ZM19.4767 5.52667L21.6794 3.324L21.2551 2.89974L19.0525 5.1024L19.4767 5.52667ZM18.1105 3.89051C18.531 4.31091 18.8164 4.8293 18.9758 5.39583L19.5534 5.23324C19.369 4.57834 19.0353 3.96666 18.5348 3.46623L18.1105 3.89051ZM16.5883 3.04913C17.1616 3.19865 17.6918 3.4717 18.1105 3.8905L18.5348 3.46625C18.0278 2.95916 17.3971 2.64001 16.7398 2.46855L16.5883 3.04913ZM18.677 0.321616L16.4519 2.54671L16.8762 2.97097L19.1013 0.74588L18.677 0.321616ZM15.555 4.18002C16.1497 4.15035 16.7486 4.35399 17.1965 4.80198L17.6208 4.37772C17.0439 3.80081 16.2759 3.54331 15.5251 3.58076L15.555 4.18002ZM11.8371 8.00753L15.7521 4.09252L15.3279 3.66826L11.4129 7.58327L11.8371 8.00753ZM14.476 10.3434C14.229 8.95807 13.2175 7.7848 11.6796 7.5004L11.5704 8.0904C12.8408 8.32532 13.6782 9.287 13.8853 10.4487L14.476 10.3434ZM17.906 6.24638L13.9685 10.1839L14.3927 10.6082L18.3303 6.67065L17.906 6.24638ZM17.1965 4.80191C17.6446 5.25031 17.8482 5.84905 17.8185 6.44355L18.4178 6.47348C18.4553 5.72272 18.1977 4.95496 17.6209 4.37779L17.1965 4.80191ZM10.0681 9.06164L9.23198 11.571L9.8012 11.7607L10.6374 9.25131L10.0681 9.06164ZM13.2752 10.957C13.2752 9.5107 11.8847 8.31733 10.256 8.87252L10.4496 9.44043C11.6672 9.02538 12.6752 9.89856 12.6752 10.957H13.2752ZM13.2752 11.5974V10.957H12.6752V11.5974H13.2752ZM10.4275 12.7654L13.0703 11.8819L12.8801 11.3129L10.2373 12.1964L10.4275 12.7654ZM9.23197 11.571C8.98583 12.3098 9.68901 13.0122 10.4275 12.7654L10.2373 12.1964C9.9679 12.2864 9.71142 12.0302 9.80121 11.7607L9.23197 11.571Z" fill="#7D0029" mask="url(#path-1-inside-1_768_96408)"/>
</svg>
