<svg width="605" height="628" viewBox="0 0 605 628" fill="none" xmlns="http://www.w3.org/2000/svg">
<g opacity="0.5">
<g opacity="0.5">
<path d="M448.35 286.237V259.12M479.418 170.629V272.285M485.632 269.072V166.506M454.563 254.866V283.688M460.777 281.032V249.308M106.624 156.169V168.916M112.837 173.072V155.546M280.589 370.417V456.924M286.803 456.506V369.031M255.735 375.606V457.891M261.948 457.744V374.352M268.162 373.073V457.539M274.376 457.26V371.753M305.444 364.752V454.826M311.658 454.096V363.252M293.017 367.638V456.022M299.23 455.457V366.195M268.162 244.39V326.339M274.376 325.831V242.939M317.871 361.736V453.276M324.085 452.366V360.178M243.316 378.04V458.006M249.529 457.973V376.835M255.743 247.193V327.184M261.957 326.79V245.8M230.888 380.352V457.883M237.102 457.973V379.213M243.316 249.866V327.807M249.529 327.528V248.554M392.435 347.325V432.455M398.649 428.987V348.759M392.435 267.965V304.862M398.649 303.116V269.072M404.862 269.662V301.288M411.076 299.394V269.752M380.008 264.137V308.133M386.221 306.526V266.318M417.29 361.662V413.396M423.503 403.28V373.056M330.307 358.604V451.35M336.52 450.227V356.989M367.589 258.096V311.141M373.802 309.674V261.399M355.161 351.964V446.063M361.375 444.374V350.21M342.734 355.342V448.964M348.948 447.587V353.653M404.862 351.251V424.88M411.076 419.896V355.268M280.598 241.439V325.241M286.811 324.61V239.93M367.58 348.44V442.489M373.794 440.398V347.308M380.008 346.726V438.062M386.221 435.422V346.685M94.2046 397.845V442.226M100.418 443.546V397.411M25.4611 285.975C25.5922 286.049 25.7316 286.131 25.8545 286.205V274.802M466.982 54.2505V129.347M473.196 121.584V62.4315M479.41 74.2358V110.05M454.555 41.897V139.52M460.769 135.249V47.6024M206.034 606.265V613.757M212.248 616.667V603.453M485.623 580.845V559.482M603.674 363.006V389.05M7.21361 398.747V414.265M13.4273 417.093V399.108M442.136 32.2732V138.159M448.35 139.889V36.8555M19.6409 399.403V419.757M25.8545 422.249V399.591M1 411.256V398.649M293.017 238.414V323.97M299.23 323.232V236.832M230.888 252.448V328.216M237.102 328.061V251.194M342.726 239.176V316.412M348.94 315.199V244.595M330.299 232.823V318.666M336.512 317.576V235.176M317.871 232.29V320.683M324.085 319.708V231.979M305.444 235.25V322.462M311.658 321.609V233.585M355.153 249.743V313.937M361.367 312.6V254.251M429.709 56.7917V131.183M434.824 134.257C435.16 134.47 435.537 134.7 435.922 134.938V48.7828M106.624 397.001V444.874M112.837 446.063V396.493M218.461 254.891V328.356M224.675 328.323V253.686M193.607 259.35V327.856M199.82 328.077V258.284M119.051 395.919V447.177M125.265 448.235V395.337M206.034 257.169V328.225M212.248 328.315V256.038M404.854 75.7277V120.084M411.068 122.224V71.8012M181.179 388.525V455.293M187.393 455.809V387.615M230.888 504.912V558.351M237.102 558.785V503.895M243.316 502.838V559.162M249.529 559.482V501.756M268.17 498.338V560.056M274.384 560.122V497.149M280.598 495.919V560.122M286.811 560.048V494.665M193.615 386.689V456.293M199.828 456.703V385.721M355.161 99.9101V122.519M361.375 119.863V97.3525M218.469 506.896V557.318M224.683 557.867V505.92M293.025 493.386V559.908M299.239 559.695V492.067M218.469 382.623V457.605M224.683 457.801V381.524M206.042 384.705V457.047M212.256 457.35V383.672M255.743 500.657V559.744M261.957 559.933V499.51M392.435 468.876V543.661M398.649 541.136V467.909M417.29 468.573V530.758M423.503 525.725V470.712M404.862 467.466V538.21M411.076 534.808V467.622M305.452 490.73V559.4M311.666 559.031V489.353M417.29 269.384V297.493M423.503 295.427V268.449M417.29 67.5057V124.814M423.503 127.806V62.6119M380.008 472.229V547.858M386.221 545.883V470.466M330.299 485.05V557.384M336.512 556.646V483.558M317.871 487.943V558.564M324.085 558.015V486.509M367.58 475.614V551.137M373.794 549.596V473.934M355.153 478.885V553.736M361.367 552.506V477.262M342.726 482.025V555.785M348.94 554.818V480.459M392.435 82.7529V117.207M398.649 118.395V79.3592M255.743 131.511V201.247M261.957 200.927V129.945M268.17 128.331V200.583M274.384 200.206V126.658M243.316 134.528V201.804M249.529 201.558V133.044M230.888 137.372V201.755M237.102 201.861V135.979M218.461 140.036V201.156M224.675 201.517V138.725M280.589 124.945V199.779M286.803 199.287V123.183M342.718 104.747V130.929M348.931 126.109V102.353M330.29 109.272V147.406M336.504 137.569V107.042M305.436 117.576V196.615M311.649 194.058V115.6M293.009 121.371V198.689M299.222 197.877V119.502M317.863 113.559V188.819M324.077 165.965V111.452M156.325 265.096V325.028M162.538 325.692V264.227M131.47 268.252V321.585M137.684 322.577V267.523M131.47 394.714V449.26M137.684 450.202V394.066M119.043 269.63V319.33M125.256 320.503V268.966M143.897 393.37V451.104M150.111 451.94V392.648M156.325 391.886V452.719M162.538 453.448V391.099M206.034 142.537V200.124M212.248 200.697V141.315M181.179 147.021V196.672M187.393 197.714V145.971M143.897 266.769V323.487M150.111 324.306V265.957M193.607 144.881V198.64M199.82 199.443V143.742M168.752 390.296V454.137M174.966 454.76V389.443M181.179 261.432V327.233M187.393 327.593V260.416M168.752 263.334V326.29M174.966 326.79V262.391" stroke="#C7848B" stroke-miterlimit="10"/>
<path d="M56.9053 399.6V432.775M63.119 434.562V399.428M44.478 399.764V428.889M50.6917 430.881V399.714M94.1872 271.851V313.568M100.401 315.15V271.343M81.76 398.632V439.406M87.9736 440.866V398.272M32.0508 399.706V424.577M38.2644 426.791V399.772M69.3326 273.425V306.026M75.5463 308.108V273.113M87.9736 528.135V522.815M81.76 272.736V310.059M87.9736 311.879V272.318M32.0508 274.204V289.779M38.2644 293.05V274.237M56.9053 273.925V301.403M63.119 303.796V273.696M44.478 274.187V296.025M50.6917 298.804V274.081M243.298 599.453V621.815M249.512 622.668V598.527M193.597 510.38V554.465M199.811 555.252V509.544M206.025 508.666V555.982M212.238 556.654V507.765M94.1872 519.012V532.275M100.401 534.324V518.782M218.452 602.715V617.807M224.666 618.897V601.961M230.879 601.166V619.93M237.093 620.905V600.322M181.178 511.978V552.703M187.392 553.613V511.199M119.042 517.823V539.817M125.255 541.456V517.405M106.614 518.503V536.259M112.828 538.087V518.175M143.896 515.929V545.85M150.11 547.161V515.347M156.324 514.741V548.399M162.537 549.572V514.109M168.751 513.429V550.686M174.965 551.727V512.724M131.469 516.954V543.005M137.683 544.473V516.462M69.3408 399.214V436.259M75.5545 437.873V398.944M293.016 23.4282V91.3767M299.229 90.4913V20.223M305.443 16.6326V89.3437M311.657 87.9501V12.4683M317.87 7.22193V86.2697M324.084 84.2121V0M268.251 33.8963C268.251 33.8963 268.194 33.9127 268.161 33.9291V92.9424M274.375 92.8276V31.5683M280.588 29.0435V92.5325M286.802 92.0489V26.3465M367.571 94.631V117.969M373.785 116.846V91.8603M367.571 37.2163V48.6025M255.734 38.2738V92.6309M261.947 92.8768V36.1588M330.289 2.46742V81.7037C330.47 81.6217 330.658 81.548 330.839 81.466M336.503 78.7198V5.41029M342.717 8.9024V75.3425M348.93 71.4159V13.0667M355.144 18.1655V66.6696M361.358 60.3904V24.8874M131.469 153.775V182.54M137.683 185.016V153.095M143.896 152.357V187.245M150.11 189.254V151.579M156.324 150.742V191.049M162.537 192.664V149.865M243.307 42.1921V91.557M249.52 92.1964V40.2821M119.042 155.013V176.622M125.255 179.769V154.423M106.614 270.785V316.625C106.926 316.699 107.229 316.773 107.549 316.847M112.828 318.011V270.203M174.965 62.6611V58.8001M168.751 148.947V194.131M174.965 195.443V147.98M230.887 45.7498V89.6634M237.101 90.7208V44.012M218.46 48.9714V86.8107M224.674 88.36V47.3893M206.033 51.9061V82.7776M212.246 84.9745V50.4715M181.178 56.9639V68.6944M187.392 73.3095V55.7916M193.606 54.562V77.0804M199.819 80.1626V53.2668M342.725 580.55V626.619M348.938 626.053V579.074M541.545 411.601V486.14M547.759 481.967V407.953M529.118 422.536V491.845M535.331 489.493V416.454M554.456 140.569C554.3 140.323 554.128 140.069 553.964 139.823V212.387M560.178 200.517V151.759M255.726 597.584V623.455M261.939 624.193V596.584M516.682 143.242V249.956M522.896 245.3V136.561M510.469 483.623V458.982M529.11 285.647V379.852M535.323 379.147V282.139M516.682 441.185V491.419M522.896 492.829V430.373M541.537 278.466V377.344M547.751 374.622V274.573M516.682 294.812V375.991C516.961 376.196 517.223 376.417 517.51 376.606M522.896 379.073V289.344M504.255 153.825V258.325M510.469 254.292V148.865M491.828 162.571V265.703M498.041 262.121V158.358M566.383 396.854V465.351M572.597 458.424V392.689M566.383 488.132V494.731M572.597 482.959V481.123M578.811 388.205V450.67M585.024 441.849V383.303M603.665 267.834V304.969M591.238 377.811V431.357M597.452 417.085V371.36M541.529 507.199V533.332M547.742 525.283V503.15M491.828 549.014V578.369M498.041 574.623V540.62M504.255 533.57V570.155M510.469 565.13V527.553M504.255 315.166V357.99M510.469 369.761V302.567M553.964 498.698V515.56M560.178 505.297V493.788M516.682 522.43V559.671M522.896 553.785V518.061M529.11 514.577V547.457M535.323 540.669V510.994M541.537 122.273V228.388M547.751 221.166V130.773M367.563 574.41V623.348M373.777 622.029V572.787M379.99 88.9666V116.379M386.204 116.51V85.9336M355.136 577.566V625.357M361.349 624.447V576.016M553.956 404.444V477.09M560.17 471.54V400.739M404.837 565.073V610.142M411.05 605.953V564.712M392.409 567.622V616.233M398.623 613.487V566.065M268.145 595.575V624.857M274.358 625.463V594.502M330.273 583.402V627.324M336.487 627.037V582.001M280.564 593.42V625.996M286.777 626.463V592.288M292.991 591.132V626.857M299.205 627.168V589.936M317.846 586.132V627.57M324.059 627.513V584.796M305.418 588.706V627.398M311.632 627.537V587.435M379.974 571.106V620.438M386.188 618.528V569.401M578.794 249.759V349.415M585.008 341.742V242.127M529.085 127.232V240.242M535.299 234.668V114.1M591.222 229.298V332.684M597.435 321.437V239.266M553.94 270.458V371.097M560.153 366.835V266.047M417.248 565.319V600.584M423.461 593.034V567.901M566.367 261.244V361.842M572.581 356.063V255.899M429.675 266.957V293.238M435.889 291V264.99M429.675 474.721V518.979M435.889 508.216V483.451M466.957 241.676V278.253M473.17 275.351V229.429M442.102 262.44V288.664" stroke="#C7848B" stroke-miterlimit="10"/>
</g>
</g>
</svg>
