<svg width="24" height="24" viewBox="0 0 24 24" fill="none" xmlns="http://www.w3.org/2000/svg">
<mask id="path-1-outside-1_768_96363" maskUnits="userSpaceOnUse" x="0" y="1" width="24" height="22" fill="black">
<rect fill="white" y="1" width="24" height="22"/>
<path fill-rule="evenodd" clip-rule="evenodd" d="M11.6479 22.0029C11.7332 22.1051 11.8609 22.1674 11.9998 22.1674C12.1434 22.1674 12.2751 22.1008 12.3602 21.9924L22.8916 9.48388C23.0135 9.33905 23.0346 9.13464 22.9429 8.96873L19.2589 2.25959C19.2096 2.15772 19.1228 2.0741 19.0093 2.03125C19.0029 2.02881 18.9964 2.02651 18.9899 2.02435C18.9347 2.00599 18.8785 1.99873 18.8238 2.00134H12.0006H11.9996H5.19033C5.12765 1.99648 5.06281 2.0047 4.99943 2.02793C4.88255 2.06944 4.793 2.15406 4.74225 2.25782L1.05633 8.96873C0.965583 9.13372 0.985749 9.33905 1.10766 9.48388L11.6479 22.0029ZM13.2801 19.4774L21.433 9.79274H16.7246L13.2801 19.4774ZM15.7516 9.79274L11.9998 20.3415L8.24802 9.79274H15.7516ZM17.0513 8.87409C17.0516 8.87476 17.052 8.87543 17.0523 8.8761H21.8464L18.936 3.57515L17.0513 8.87409ZM18.1967 2.91798L16.4079 7.94735L12.8813 2.91798H18.1967ZM7.60262 7.97809L11.1234 2.91798H5.80294L7.60262 7.97809ZM5.06388 3.57579L6.94903 8.8761H2.15383L5.06388 3.57579ZM7.27504 9.79274L10.7191 19.4762L2.56718 9.79274H7.27504ZM12.0024 3.25989L8.09369 8.8761H15.9404L12.0024 3.25989Z"/>
</mask>
<path fill-rule="evenodd" clip-rule="evenodd" d="M11.6479 22.0029C11.7332 22.1051 11.8609 22.1674 11.9998 22.1674C12.1434 22.1674 12.2751 22.1008 12.3602 21.9924L22.8916 9.48388C23.0135 9.33905 23.0346 9.13464 22.9429 8.96873L19.2589 2.25959C19.2096 2.15772 19.1228 2.0741 19.0093 2.03125C19.0029 2.02881 18.9964 2.02651 18.9899 2.02435C18.9347 2.00599 18.8785 1.99873 18.8238 2.00134H12.0006H11.9996H5.19033C5.12765 1.99648 5.06281 2.0047 4.99943 2.02793C4.88255 2.06944 4.793 2.15406 4.74225 2.25782L1.05633 8.96873C0.965583 9.13372 0.985749 9.33905 1.10766 9.48388L11.6479 22.0029ZM13.2801 19.4774L21.433 9.79274H16.7246L13.2801 19.4774ZM15.7516 9.79274L11.9998 20.3415L8.24802 9.79274H15.7516ZM17.0513 8.87409C17.0516 8.87476 17.052 8.87543 17.0523 8.8761H21.8464L18.936 3.57515L17.0513 8.87409ZM18.1967 2.91798L16.4079 7.94735L12.8813 2.91798H18.1967ZM7.60262 7.97809L11.1234 2.91798H5.80294L7.60262 7.97809ZM5.06388 3.57579L6.94903 8.8761H2.15383L5.06388 3.57579ZM7.27504 9.79274L10.7191 19.4762L2.56718 9.79274H7.27504ZM12.0024 3.25989L8.09369 8.8761H15.9404L12.0024 3.25989Z" fill="white"/>
<path d="M11.6479 22.0029L11.8014 21.8748L11.8009 21.8741L11.6479 22.0029ZM12.3602 21.9924L12.2072 21.8635L12.203 21.8688L12.3602 21.9924ZM22.8916 9.48388L23.0446 9.61269L23.0446 9.61267L22.8916 9.48388ZM22.9429 8.96873L22.7676 9.06499L22.7679 9.06544L22.9429 8.96873ZM19.2589 2.25959L19.0786 2.34681L19.0836 2.35586L19.2589 2.25959ZM19.0093 2.03125L18.9381 2.21816L18.9387 2.21836L19.0093 2.03125ZM18.9899 2.02435L18.9267 2.21412L18.9272 2.21429L18.9899 2.02435ZM18.8238 2.00134V2.20157L18.8333 2.20112L18.8238 2.00134ZM5.19033 2.00134L5.17486 2.20074L5.18259 2.20134H5.19033V2.00134ZM4.99943 2.02793L5.06637 2.2164L5.06824 2.21572L4.99943 2.02793ZM4.74225 2.25782L4.91775 2.35421L4.92192 2.34568L4.74225 2.25782ZM1.05633 8.96873L1.23157 9.06511L1.23163 9.06501L1.05633 8.96873ZM1.10766 9.48388L0.954654 9.61267L0.954667 9.61269L1.10766 9.48388ZM13.2801 19.4774L13.0916 19.4103L13.4331 19.6062L13.2801 19.4774ZM21.433 9.79274L21.586 9.92154L21.8628 9.59274H21.433V9.79274ZM16.7246 9.79274V9.59274H16.5834L16.5361 9.72572L16.7246 9.79274ZM11.9998 20.3415L11.8114 20.4085L11.9998 20.9383L12.1882 20.4085L11.9998 20.3415ZM15.7516 9.79274L15.94 9.85976L16.035 9.59274H15.7516V9.79274ZM8.24802 9.79274V9.59274H7.96462L8.05959 9.85976L8.24802 9.79274ZM17.0513 8.87409L16.8629 8.80707L16.8345 8.88683L16.872 8.96272L17.0513 8.87409ZM17.0523 8.8761L16.8727 8.96421L16.9277 9.0761H17.0523V8.8761ZM21.8464 8.8761V9.0761H22.1843L22.0217 8.77984L21.8464 8.8761ZM18.936 3.57515L19.1113 3.47889L18.8968 3.08832L18.7475 3.50813L18.936 3.57515ZM16.4079 7.94735L16.2442 8.06217L16.4666 8.37932L16.5964 8.01437L16.4079 7.94735ZM18.1967 2.91798L18.3851 2.985L18.4801 2.71798H18.1967V2.91798ZM12.8813 2.91798V2.71798H12.4968L12.7176 3.03281L12.8813 2.91798ZM7.60262 7.97809L7.41419 8.0451L7.54457 8.41169L7.76679 8.09231L7.60262 7.97809ZM11.1234 2.91798L11.2876 3.03221L11.5062 2.71798H11.1234V2.91798ZM5.80294 2.91798V2.71798H5.51953L5.6145 2.985L5.80294 2.91798ZM6.94903 8.8761V9.0761H7.23243L7.13746 8.80908L6.94903 8.8761ZM5.06388 3.57579L5.25232 3.50876L5.10301 3.08896L4.88857 3.47953L5.06388 3.57579ZM2.15383 8.8761L1.97851 8.77984L1.81586 9.0761H2.15383V8.8761ZM10.7191 19.4762L10.5661 19.605L10.9075 19.4091L10.7191 19.4762ZM7.27504 9.79274L7.46348 9.72572L7.41618 9.59274H7.27504V9.79274ZM2.56718 9.79274V9.59274H2.13737L2.41417 9.92154L2.56718 9.79274ZM8.09369 8.8761L7.92953 8.76185L7.71082 9.0761H8.09369V8.8761ZM12.0024 3.25989L12.1661 3.14507L12.0018 2.91065L11.8382 3.14564L12.0024 3.25989ZM15.9404 8.8761V9.0761H16.3249L16.1042 8.76128L15.9404 8.8761ZM11.9998 21.9674C11.9214 21.9674 11.8495 21.9324 11.8014 21.8748L11.4943 22.1311C11.6168 22.2779 11.8004 22.3674 11.9998 22.3674V21.9674ZM12.203 21.8688C12.155 21.9299 12.0809 21.9674 11.9998 21.9674V22.3674C12.206 22.3674 12.3952 22.2717 12.5175 22.116L12.203 21.8688ZM22.7386 9.35507L12.2072 21.8636L12.5132 22.1212L23.0446 9.61269L22.7386 9.35507ZM22.7679 9.06544C22.8191 9.15807 22.8078 9.27291 22.7386 9.35508L23.0446 9.61267C23.2193 9.40519 23.2502 9.11121 23.118 8.87201L22.7679 9.06544ZM19.0836 2.35586L22.7676 9.06499L23.1183 8.87246L19.4342 2.16333L19.0836 2.35586ZM18.9387 2.21836C19.0024 2.24241 19.051 2.28909 19.0789 2.34669L19.4389 2.17249C19.3682 2.02636 19.2433 1.90579 19.0799 1.84413L18.9387 2.21836ZM18.9272 2.21429C18.9309 2.2155 18.9345 2.21679 18.9381 2.21816L19.0804 1.84433C19.0712 1.84082 19.0619 1.83751 19.0525 1.83442L18.9272 2.21429ZM18.8333 2.20112C18.8638 2.19966 18.8953 2.20366 18.9267 2.21412L19.053 1.83458C18.9741 1.80832 18.8933 1.7978 18.8143 1.80157L18.8333 2.20112ZM12.0006 2.20134H18.8238V1.80134H12.0006V2.20134ZM11.9996 2.20134H12.0006V1.80134H11.9996V2.20134ZM5.19033 2.20134H11.9996V1.80134H5.19033V2.20134ZM5.06824 2.21572C5.10426 2.20252 5.14033 2.19807 5.17486 2.20074L5.2058 1.80194C5.11497 1.7949 5.02135 1.80689 4.93062 1.84013L5.06824 2.21572ZM4.92192 2.34568C4.95072 2.28679 5.00095 2.23963 5.06637 2.21639L4.93248 1.83946C4.76415 1.89926 4.63527 2.02132 4.56259 2.16996L4.92192 2.34568ZM1.23163 9.06501L4.91755 2.3541L4.56695 2.16154L0.881031 8.87244L1.23163 9.06501ZM1.26067 9.35508C1.1919 9.27338 1.18074 9.15753 1.23157 9.06511L0.881087 8.87234C0.750421 9.10992 0.779601 9.40472 0.954654 9.61267L1.26067 9.35508ZM11.8009 21.8741L1.26066 9.35507L0.954667 9.61269L11.4949 22.1317L11.8009 21.8741ZM13.4331 19.6062L21.586 9.92154L21.28 9.66394L13.1271 19.3485L13.4331 19.6062ZM21.433 9.59274H16.7246V9.99274H21.433V9.59274ZM16.5361 9.72572L13.0916 19.4103L13.4685 19.5444L16.913 9.85976L16.5361 9.72572ZM12.1882 20.4085L15.94 9.85976L15.5632 9.72572L11.8114 20.2745L12.1882 20.4085ZM8.05959 9.85976L11.8114 20.4085L12.1882 20.2745L8.43646 9.72572L8.05959 9.85976ZM15.7516 9.59274H8.24802V9.99274H15.7516V9.59274ZM16.872 8.96272C16.8724 8.96343 16.8726 8.96384 16.8727 8.96421L17.2318 8.78799C17.2314 8.78702 17.2309 8.7861 17.2306 8.78547L16.872 8.96272ZM17.0523 9.0761H21.8464V8.6761H17.0523V9.0761ZM22.0217 8.77984L19.1113 3.47889L18.7606 3.6714L21.6711 8.97235L22.0217 8.77984ZM18.7475 3.50813L16.8629 8.80707L17.2397 8.94112L19.1244 3.64217L18.7475 3.50813ZM16.5964 8.01437L18.3851 2.985L18.0082 2.85096L16.2195 7.88033L16.5964 8.01437ZM12.7176 3.03281L16.2442 8.06217L16.5717 7.83252L13.0451 2.80316L12.7176 3.03281ZM18.1967 2.71798H12.8813V3.11798H18.1967V2.71798ZM7.76679 8.09231L11.2876 3.03221L10.9593 2.80375L7.43845 7.86386L7.76679 8.09231ZM11.1234 2.71798H5.80294V3.11798H11.1234V2.71798ZM5.6145 2.985L7.41419 8.0451L7.79106 7.91107L5.99137 2.85096L5.6145 2.985ZM7.13746 8.80908L5.25232 3.50876L4.87545 3.64281L6.76059 8.94312L7.13746 8.80908ZM2.15383 9.0761H6.94903V8.6761H2.15383V9.0761ZM4.88857 3.47953L1.97851 8.77984L2.32914 8.97235L5.2392 3.67204L4.88857 3.47953ZM10.9075 19.4091L7.46348 9.72572L7.08661 9.85976L10.5307 19.5432L10.9075 19.4091ZM2.41417 9.92154L10.5661 19.605L10.8721 19.3474L2.72018 9.66394L2.41417 9.92154ZM7.27504 9.59274H2.56718V9.99274H7.27504V9.59274ZM8.25784 8.99035L12.1665 3.37414L11.8382 3.14564L7.92953 8.76185L8.25784 8.99035ZM15.9404 8.6761H8.09369V9.0761H15.9404V8.6761ZM11.8386 3.37471L15.7767 8.99092L16.1042 8.76128L12.1661 3.14507L11.8386 3.37471Z" fill="white" mask="url(#path-1-outside-1_768_96363)"/>
</svg>
