<svg width="24" height="24" viewBox="0 0 24 24" fill="none" xmlns="http://www.w3.org/2000/svg">
<path d="M20.625 19.9375V9.04956C20.625 8.22937 19.9581 7.56249 19.1379 7.56249H15.125V2.56849C15.125 2.50937 15.1119 1.76618 14.4657 1.33306C13.8194 0.900619 13.1271 1.17149 13.0721 1.19349L2.98306 5.34806C2.42413 5.57837 2.0625 6.11737 2.0625 6.72306V19.9375H1.375C0.9955 19.9375 0.6875 20.2455 0.6875 20.625C0.6875 21.0045 0.9955 21.3125 1.375 21.3125H2.75H14.4375H19.9375H20.625C21.0045 21.3125 21.3125 21.0045 21.3125 20.625C21.3125 20.2455 21.0045 19.9375 20.625 19.9375ZM3.4375 6.72306C3.4375 6.67768 3.465 6.63712 3.50694 6.61993L13.596 2.46606C13.6338 2.45093 13.6682 2.45437 13.7005 2.47637C13.7335 2.49768 13.75 2.52862 13.75 2.56849V8.24999V19.9375H3.4375V6.72306ZM15.125 19.9375V8.93749H19.1379C19.1998 8.93749 19.25 8.98768 19.25 9.04956V19.9375H15.125Z" fill="white"/>
<path d="M10.3125 16.5H6.875C6.4955 16.5 6.1875 16.808 6.1875 17.1875C6.1875 17.567 6.4955 17.875 6.875 17.875H10.3125C10.692 17.875 11 17.567 11 17.1875C11 16.808 10.692 16.5 10.3125 16.5Z" fill="white"/>
<path d="M10.3125 13.75H6.875C6.4955 13.75 6.1875 14.058 6.1875 14.4375C6.1875 14.817 6.4955 15.125 6.875 15.125H10.3125C10.692 15.125 11 14.817 11 14.4375C11 14.058 10.692 13.75 10.3125 13.75Z" fill="white"/>
<path d="M10.3125 11H6.875C6.4955 11 6.1875 11.308 6.1875 11.6875C6.1875 12.067 6.4955 12.375 6.875 12.375H10.3125C10.692 12.375 11 12.067 11 11.6875C11 11.308 10.692 11 10.3125 11Z" fill="white"/>
<path d="M10.3125 8.25H6.875C6.4955 8.25 6.1875 8.558 6.1875 8.9375C6.1875 9.317 6.4955 9.625 6.875 9.625H10.3125C10.692 9.625 11 9.317 11 8.9375C11 8.558 10.692 8.25 10.3125 8.25Z" fill="white"/>
</svg>
