<svg width="24" height="24" viewBox="0 0 24 24" fill="none" xmlns="http://www.w3.org/2000/svg">
<path d="M20.6429 3.00098H3.35713C2.05595 3.00243 1.00146 4.05692 1 5.35811V19.5009C1.00146 20.8022 2.05595 21.8567 3.35713 21.8581H20.6428C21.9441 21.8566 22.9985 20.8021 22.9999 19.5009V5.35811C22.9985 4.05692 21.9441 3.00243 20.6429 3.00098V3.00098ZM2.57142 19.5009V5.35811C2.57165 4.92428 2.92331 4.57263 3.35713 4.5724H11.2143V20.2867H3.35713C2.92331 20.2864 2.57171 19.9348 2.57142 19.5009ZM21.4286 19.5009C21.4283 19.9348 21.0767 20.2864 20.6429 20.2867H12.7857V4.5724H20.6429C21.0767 4.57263 21.4283 4.92428 21.4286 5.35811V19.5009Z" fill="white"/>
<path d="M8.8569 6.92969H4.92829C4.49435 6.92969 4.14258 7.28146 4.14258 7.7154C4.14258 8.14934 4.49435 8.50111 4.92829 8.50111H8.85684C9.29078 8.50111 9.64255 8.14934 9.64255 7.7154C9.64255 7.28146 9.29084 6.92969 8.8569 6.92969Z" fill="white"/>
<path d="M19.0717 6.92969H15.1431C14.7092 6.92969 14.3574 7.28146 14.3574 7.7154C14.3574 8.14934 14.7092 8.50111 15.1431 8.50111H19.0717C19.5056 8.50111 19.8574 8.14934 19.8574 7.7154C19.8574 7.28146 19.5056 6.92969 19.0717 6.92969Z" fill="white"/>
<path d="M8.8569 9.28662H4.92829C4.49435 9.28662 4.14258 9.63839 4.14258 10.0723C4.14258 10.5063 4.49435 10.858 4.92829 10.858H8.85684C9.29078 10.858 9.64255 10.5063 9.64255 10.0723C9.64261 9.63839 9.29084 9.28662 8.8569 9.28662Z" fill="white"/>
<path d="M19.0717 9.28662H15.1431C14.7092 9.28662 14.3574 9.63839 14.3574 10.0723C14.3574 10.5063 14.7092 10.858 15.1431 10.858H19.0717C19.5056 10.858 19.8574 10.5063 19.8574 10.0723C19.8574 9.63839 19.5056 9.28662 19.0717 9.28662Z" fill="white"/>
<path d="M8.85802 12.4307C8.42746 12.4273 8.07569 12.7735 8.07231 13.2041C8.07225 13.2079 8.07225 13.2117 8.07231 13.2155C8.07184 13.6495 8.4232 14.0016 8.85715 14.0021C9.29109 14.0026 9.64326 13.6512 9.64373 13.2173C9.6442 12.7833 9.29284 12.4312 8.85889 12.4307C8.8586 12.4307 8.85831 12.4307 8.85802 12.4307Z" fill="white"/>
<path d="M18.2852 13.2154C18.2852 13.6493 18.6369 14.0011 19.0709 14.0011C19.5048 14.0011 19.8566 13.6493 19.8566 13.2154C19.8566 12.7815 19.5048 12.4297 19.0709 12.4297C18.6369 12.4297 18.2852 12.7815 18.2852 13.2154Z" fill="white"/>
</svg>
