<svg width="24" height="24" viewBox="0 0 24 24" fill="none" xmlns="http://www.w3.org/2000/svg">
<path d="M15.6472 12.8226C15.4712 12.8226 15.2952 12.7554 15.161 12.6211C14.3173 11.7771 13.1952 11.3123 12.0013 11.3123C10.8075 11.3123 9.68537 11.7771 8.84172 12.6211C8.5733 12.8897 8.13794 12.8898 7.86943 12.6213C7.60092 12.3529 7.60079 11.9176 7.86921 11.6491C8.97261 10.5452 10.4401 9.93726 12.0013 9.93726C13.5626 9.93726 15.0301 10.5452 16.1335 11.6491C16.4019 11.9176 16.4018 12.3529 16.1333 12.6213C15.999 12.7555 15.823 12.8226 15.6472 12.8226Z" fill="white"/>
<path d="M13.9442 14.5237C13.7682 14.5237 13.5923 14.4566 13.4581 14.3224C13.0686 13.933 12.5506 13.7185 11.9994 13.7185C11.4482 13.7185 10.9303 13.933 10.5408 14.3224C10.2724 14.5909 9.83704 14.5909 9.56857 14.3224C9.30006 14.0539 9.30006 13.6186 9.56857 13.3501C10.2177 12.701 11.081 12.3435 11.9994 12.3435C12.9179 12.3435 13.7812 12.701 14.4303 13.3501C14.6988 13.6186 14.6988 14.0539 14.4303 14.3224C14.296 14.4566 14.1201 14.5237 13.9442 14.5237Z" fill="white"/>
<path d="M12 17.4996C11.4314 17.4996 10.9688 17.037 10.9688 16.4684C10.9688 15.8998 11.4314 15.4371 12 15.4371C12.5686 15.4371 13.0312 15.8998 13.0312 16.4684C13.0312 17.037 12.5686 17.4996 12 17.4996Z" fill="white"/>
<path d="M22.719 8.69556L12.4066 1.1331C12.1645 0.955635 11.8355 0.955635 11.5934 1.1331L1.28097 8.69556C0.974779 8.92012 0.908608 9.35032 1.13316 9.65651C1.35776 9.96271 1.788 10.0289 2.09411 9.80432L2.37504 9.59829V21.0233C2.37504 22.1131 3.26174 22.9998 4.35159 22.9998H19.6484C20.7383 22.9998 21.625 22.1131 21.625 21.0233V9.59833L21.9059 9.80437C22.0284 9.89421 22.1708 9.93753 22.3119 9.93753C22.5234 9.93753 22.7321 9.8402 22.8668 9.65656C23.0914 9.35032 23.0252 8.92007 22.719 8.69556ZM20.25 21.0233C20.25 21.355 19.9801 21.6249 19.6484 21.6249H4.35159C4.01988 21.6249 3.75003 21.355 3.75003 21.0233V8.58999L12 2.54001L20.25 8.58999V21.0233Z" fill="white"/>
</svg>
