<?xml version="1.0" encoding="utf-8"?><svg viewBox="0 0 51 18" xmlns="http://www.w3.org/2000/svg" xmlns:xlink="http://www.w3.org/1999/xlink"><style>:root>svg{display:none}:root>svg:target{display:block}</style><svg viewBox="0 0 6 18" id="btn-arrow" xmlns="http://www.w3.org/2000/svg"><path d="M3 18l2.887-5H.113L3 18zM2.5 0v13.5h1V0h-1z"/></svg><svg viewBox="0 0 18 18" id="locked" xmlns="http://www.w3.org/2000/svg"><g clip-path="url(#ba)"><path d="M17.632 8.8c0-.1-.059-.192-.15-.234L12.97 6.492l4.51-2.073a.26.26 0 000-.469L8.94.024a.258.258 0 00-.22.002l-.774.378c-.298.146-.074.61.226.464l.664-.325 1.457.67-1.47.675-1.894-.868C6.834.977 6.748.94 6.644.986L.182 3.95a.26.26 0 000 .469l4.51 2.073-.884.407c-.301.138-.088.608.216.468l1.272-.584.013-.007 3.415 1.57a.259.259 0 00.215 0l3.415-1.57L16.757 8.8l-7.925 3.643L.907 8.8l1.733-.797c.302-.138.089-.608-.215-.468L.182 8.565c-.196.09-.196.38 0 .47l4.51 2.073-4.51 2.073a.26.26 0 000 .469l8.542 3.927a.26.26 0 00.215 0l1.479-.68c.301-.138.088-.608-.216-.468l-1.37.63-7.925-3.643 4.403-2.024 3.414 1.57a.26.26 0 00.215 0l3.43-1.578c.02.019.042.034.068.046l4.32 1.986-4.87 2.238c-.302.14-.088.608.215.469l5.38-2.473c.195-.09.195-.379 0-.469l-4.511-2.073 4.51-2.074a.257.257 0 00.15-.234zm-6.723-1.927l-1.46-.671 1.604-.738 1.455.674-1.6.735zm-5.752-.735l1.46-.67 1.597.734-1.46.67-1.597-.734zM2.984 5.14l1.46-.67L6 5.183l-1.46.67-1.556-.715zm1.632-2.656l1.45.672-1.622.746-1.457-.67 1.63-.748zm2.066.957l1.55.718-1.615.742-1.556-.715 1.62-.745zm7.998-.21l-1.464.672-1.6-.733 1.466-.674 1.598.735zm-2.082.956l-1.544.71-1.591-.737 1.536-.706 1.6.733zm.526 1.669l-1.455-.674 1.548-.711 1.462.67-1.555.715zm-4.276-1.98l-1.55-.718 1.524-.701 1.558.714-1.532.704zM7.234 5.183l1.613-.742 1.591.737-1.606.739-1.598-.734zm8.063-.328l-1.463-.67 1.463-.672 1.46.67-1.46.672zm-4.388-3.36l1.556.716-1.467.674-1.558-.714 1.469-.676zM6.682 2.872L5.232 2.2l1.517-.696 1.455.667-1.522.7zm-4.313.642l1.458.67-1.46.672-1.46-.671 1.462-.67zm6.463 4.314l-1.46-.672 1.46-.67 1.46.67-1.46.672z"/></g><defs><clipPath id="ba"><path d="M0 0h17.6v17.6H0z"/></clipPath></defs></svg><svg viewBox="0 0 51 8" id="slider-arrow" xmlns="http://www.w3.org/2000/svg"><path d="M50.354 4.354a.5.5 0 000-.708L47.172.464a.5.5 0 10-.707.708L49.293 4l-2.828 2.828a.5.5 0 10.707.708l3.182-3.182zM0 4.5h50v-1H0v1z"/></svg></svg>